<?xml version="1.0" encoding="utf-8"?>
<!-- Generator: Adobe Illustrator 15.1.0, SVG Export Plug-In . SVG Version: 6.00 Build 0)  -->
<!DOCTYPE svg PUBLIC "-//W3C//DTD SVG 1.1//EN" "http://www.w3.org/Graphics/SVG/1.1/DTD/svg11.dtd">
<svg version="1.1" id="Layer_1" xmlns="http://www.w3.org/2000/svg" xmlns:xlink="http://www.w3.org/1999/xlink" x="0px" y="0px"
	 width="450px" height="550px" viewBox="0 0 450 550" enable-background="new 0 0 450 550" xml:space="preserve">
<g id="Layer_2" display="none">
	<rect x="-20" y="-16.001" display="inline" fill="#231F20" stroke="#000000" stroke-miterlimit="10" width="487" height="590"/>
</g>
<circle fill="#FFFFFF" cx="11.5" cy="361.5" r="10"/>
<circle fill="#FFFFFF" cx="61.5" cy="361.5" r="10"/>
<circle fill="#FFFFFF" cx="111.5" cy="361.5" r="10"/>
<ellipse fill="#FFFFFF" cx="12.25" cy="312.333" rx="4.25" ry="10"/>
<g>
	<path fill="#FFFFFF" d="M25.217,12.608c0-0.717,0.582-1.299,1.299-1.299c0.718,0,1.3,0.582,1.3,1.299v9.532
		c0,0.719-0.583,1.3-1.3,1.3c-0.717,0-1.299-0.581-1.299-1.3V12.608z M37.068,35.734c-0.259,0.969-0.755,1.812-1.409,2.485
		c-0.557,0.523-1.293,0.823-2.077,0.819H33.51c-6.231,0.028-12.471-2.33-17.23-7.079l-0.016-0.016
		c-4.748-4.759-7.107-10.999-7.079-17.229l-0.001-0.071c-0.003-0.783,0.297-1.522,0.821-2.079c0.672-0.653,1.515-1.148,2.485-1.407
		c0.927-0.25,1.864-0.252,2.74-0.051c1.074,0.233,1.981,1.047,2.285,2.182l1.313,4.948c0.434,1.616-0.526,3.276-2.141,3.71
		l-0.391,0.112c0.706,2.248,1.948,4.362,3.726,6.145c1.782,1.777,3.897,3.02,6.143,3.726l0.114-0.392
		c0.433-1.614,2.094-2.574,3.71-2.141l4.948,1.313c1.134,0.304,1.949,1.211,2.181,2.284C37.32,33.87,37.317,34.806,37.068,35.734z
		 M34.749,23.44h-1.733h-1.3c-0.717,0-1.299-0.581-1.299-1.3v-9.532c0-0.717,0.581-1.299,1.299-1.299h3.033
		c3.35,0,6.067,2.715,6.067,6.065C40.815,20.725,38.099,23.44,34.749,23.44z M34.749,13.909h-1.733v6.933h1.733
		c1.915,0,3.467-1.552,3.467-3.467C38.215,15.462,36.663,13.909,34.749,13.909z"/>
</g>
<path fill="#FFFFFF" d="M132.726,18.501h-2.127l0.298-1.733h2.129L132.726,18.501z M125.276,19.8c0,0.718,0.581,1.301,1.299,1.301
	h0.937l-0.485,2.816c-0.012,0.07-0.018,0.142-0.018,0.216c0,0.718,0.581,1.3,1.3,1.3c0.648,0,1.187-0.476,1.283-1.097l0.558-3.235
	h2.127l-0.485,2.816c-0.011,0.07-0.017,0.142-0.017,0.216c0,0.718,0.581,1.3,1.3,1.3c0.647,0,1.187-0.476,1.283-1.097l0.558-3.235
	h1.191c0.718,0,1.3-0.583,1.3-1.301c0-0.717-0.582-1.299-1.3-1.299h-0.743l0.299-1.733h1.312c0.717,0,1.299-0.583,1.299-1.3
	c0-0.719-0.583-1.3-1.299-1.3h-0.864l0.412-2.383c0.012-0.071,0.019-0.144,0.019-0.217c0-0.719-0.582-1.3-1.3-1.3
	c-0.65,0-1.188,0.476-1.285,1.097l-0.483,2.803h-2.128l0.411-2.383c0.012-0.071,0.019-0.144,0.019-0.217c0-0.719-0.582-1.3-1.3-1.3
	c-0.65,0-1.188,0.476-1.284,1.097l-0.484,2.803h-1.265c-0.719,0-1.3,0.581-1.3,1.3c0,0.717,0.581,1.3,1.3,1.3h0.817l-0.3,1.733
	h-1.385C125.857,18.501,125.276,19.083,125.276,19.8z M138.895,33.686c-0.232-1.073-1.047-1.98-2.181-2.284l-4.949-1.313
	c-1.617-0.433-3.277,0.526-3.711,2.14l-0.112,0.392c-2.248-0.706-4.362-1.948-6.144-3.725c-1.779-1.784-3.021-3.897-3.727-6.146
	l0.393-0.113c1.615-0.434,2.573-2.093,2.141-3.71l-1.313-4.948c-0.305-1.134-1.212-1.949-2.286-2.182
	c-0.876-0.201-1.813-0.199-2.741,0.051c-0.969,0.259-1.812,0.754-2.484,1.407c-0.524,0.557-0.824,1.296-0.82,2.079v0.072
	c-0.028,6.229,2.33,12.471,7.078,17.229l0.016,0.016c4.76,4.748,11,7.106,17.231,7.078h0.072c0.783,0.004,1.521-0.295,2.078-0.819
	c0.653-0.673,1.149-1.516,1.408-2.485C139.094,35.499,139.097,34.563,138.895,33.686z"/>
<path fill="#FFFFFF" d="M73.448,37.32c0.587,1.017,0.522,2.234-0.071,3.157c-0.478,0.763-1.142,1.422-1.975,1.902
	c-0.868,0.502-1.815,0.748-2.753,0.761c-0.764-0.023-1.497-0.333-2.048-0.889l-0.05-0.051c-4.426-4.385-7.171-10.466-7.18-17.189
	v-0.023c0.008-6.722,2.753-12.801,7.178-17.187L66.6,7.749c0.551-0.556,1.286-0.866,2.049-0.89c0.938,0.014,1.884,0.259,2.752,0.762
	c0.833,0.48,1.497,1.14,1.975,1.902c0.594,0.923,0.659,2.142,0.072,3.158l-2.57,4.427c-0.837,1.449-2.689,1.945-4.137,1.11
	l-0.357-0.197c-1.09,2.089-1.707,4.462-1.71,6.979c0.004,2.516,0.621,4.89,1.71,6.979l0.357-0.196
	c1.448-0.836,3.3-0.339,4.138,1.109L73.448,37.32z M90.247,24.081l-6.932-6.932c-0.425-0.426-1.072-0.495-1.569-0.207
	c-0.622,0.359-0.834,1.154-0.476,1.776l1.977,3.424l-10.37,0.692c-0.32,0.009-0.636,0.137-0.88,0.38
	c-0.176,0.176-0.291,0.389-0.345,0.614c-0.093,0.354-0.149,0.727-0.149,1.111v0.07c0,0.384,0.057,0.756,0.149,1.111
	c0.054,0.225,0.169,0.438,0.345,0.613c0.244,0.244,0.56,0.371,0.88,0.38l10.37,0.744l-1.977,3.425
	c-0.359,0.622-0.146,1.416,0.476,1.775c0.497,0.287,1.144,0.219,1.569-0.207l6.932-6.932C90.756,25.411,90.756,24.589,90.247,24.081
	z"/>
<path fill="#FFFFFF" d="M178.495,23.125c0.118,0.52,0.188,1.072,0.188,1.626c0,1.557-0.506,2.998-1.342,4.176
	c-0.522,0.731-1.376,1.208-2.34,1.208c-0.966,0-1.819-0.477-2.342-1.208c-0.837-1.178-1.341-2.619-1.341-4.176
	c0-0.554,0.07-1.106,0.188-1.626c0.389-1.574,1.805-2.739,3.496-2.739C176.689,20.386,178.106,21.551,178.495,23.125z
	 M189.594,37.423l-0.56-2.083c-0.116-0.431-0.433-0.751-0.826-0.889c-1.297-0.435-2.623-0.811-3.974-1.117l-1.156,4.312l-1.163-4.34
	c-2.119-0.924-4.456-1.438-6.916-1.438s-4.797,0.515-6.916,1.438l-1.163,4.34l-1.156-4.312c-1.352,0.306-2.677,0.682-3.975,1.117
	c-0.391,0.137-0.708,0.458-0.825,0.889l-0.561,2.083c-0.176,0.66,0.182,1.335,0.816,1.56c1.888,0.554,3.82,0.998,5.795,1.324
	c2.39,1.247,5.101,1.962,7.983,1.962c2.882,0,5.593-0.715,7.982-1.962c1.975-0.326,3.908-0.77,5.796-1.324
	C189.412,38.758,189.771,38.083,189.594,37.423z M181.066,28.401c0,1.435,1.164,2.6,2.6,2.6c1.435,0,2.6-1.165,2.6-2.6
	c0-1.437-1.165-2.601-2.6-2.601C182.23,25.801,181.066,26.964,181.066,28.401z M166.335,31.001c1.435,0,2.599-1.165,2.599-2.6
	c0-1.437-1.164-2.601-2.599-2.601c-1.436,0-2.6,1.164-2.6,2.601C163.735,29.836,164.899,31.001,166.335,31.001z M184.316,9.586
	L184.316,9.586c-0.001-0.12-0.028-0.238-0.091-0.349c-0.185-0.321-0.589-0.436-0.917-0.269l-0.002-0.002l-0.021,0.013
	c-0.004,0.002-0.006,0.002-0.011,0.005c-0.003,0.002-0.005,0.004-0.008,0.005l-3.124,1.795v3.165l3.163,1.827h0.002
	c0.203,0.103,0.45,0.104,0.661-0.018c0.223-0.128,0.345-0.361,0.345-0.601l0.002-0.001L184.316,9.586L184.316,9.586z
	 M178.755,15.053c0,0.03-0.002,0.059-0.004,0.09c-0.041,0.74-0.576,1.349-1.281,1.498c-0.017,0.003-0.035,0.006-0.052,0.009
	c-1.386,0.231-2.809,0.355-4.259,0.358h-0.118c-1.539-0.002-3.044-0.14-4.508-0.398c-0.028-0.004-0.055-0.008-0.082-0.014
	c-0.511-0.109-0.932-0.46-1.141-0.927c-0.028-0.063-0.053-0.13-0.073-0.197c-0.344-0.97-0.532-2.014-0.532-3.102
	c0-1.108,0.195-2.171,0.552-3.157c0.016-0.042,0.032-0.085,0.048-0.127c0.198-0.462,0.604-0.811,1.1-0.934
	c0.08-0.021,0.161-0.035,0.244-0.043c1.427-0.244,2.894-0.375,4.391-0.377h0.118c1.443,0.004,2.859,0.125,4.238,0.354
	c0.026,0.004,0.051,0.009,0.077,0.013c0.708,0.153,1.243,0.766,1.277,1.511c0.002,0.025,0.004,0.051,0.004,0.076
	s-0.002,0.051-0.004,0.077v5.201C178.752,14.993,178.755,15.022,178.755,15.053z"/>
<path fill="#FFFFFF" d="M220.79,32.583c0,1.076-0.874,1.949-1.95,1.949c-1.077,0-1.949-0.873-1.949-1.949s0.872-1.95,1.949-1.95
	C219.916,30.632,220.79,31.506,220.79,32.583z M227.032,29.517c-1.694-0.151-3.304-0.622-4.764-1.365h-9.1v-13.01
	c1.87-0.148,3.762-0.225,5.671-0.225c1.91,0,3.802,0.077,5.672,0.225v5.617c0.77,0.401,1.625,0.647,2.521,0.708V14.85
	c0-1.23-0.783-2.281-1.878-2.67c-1.859-0.664-4.015-1.044-6.315-1.044c-2.299,0-4.456,0.38-6.313,1.044
	c-1.096,0.39-1.878,1.44-1.878,2.67v9.537v0.184v8.412c0,3.25,3.667,5.883,8.191,5.883c4.526,0,8.192-2.633,8.192-5.883
	L227.032,29.517L227.032,29.517z M238.198,19.538l-7.765-2.074c-0.509-0.148-1.065,0.063-1.341,0.539
	c-0.323,0.558-0.134,1.271,0.427,1.595l3.139,1.813c-1.414,1.163-3.213,1.875-5.186,1.875c-2.973-0.001-5.572-1.585-7.005-3.952
	c-0.268-0.472-0.754-0.799-1.335-0.799c-0.86,0.001-1.557,0.699-1.557,1.56c-0.001,0.187,0.046,0.374,0.106,0.541
	c1.639,4.217,5.735,7.207,10.534,7.207c2.507,0,4.82-0.822,6.693-2.204v3.293c0,0.646,0.522,1.17,1.167,1.17
	c0.566-0.001,1.035-0.401,1.146-0.934l2.075-7.722C239.521,20.616,239.029,19.763,238.198,19.538z"/>
<g>
	<path fill="#2EBBF0" d="M25.217,62.609c0-0.718,0.582-1.3,1.299-1.3c0.718,0,1.3,0.582,1.3,1.3v9.531c0,0.719-0.583,1.3-1.3,1.3
		c-0.717,0-1.299-0.581-1.299-1.3V62.609z M37.068,85.734c-0.259,0.969-0.755,1.812-1.409,2.484
		c-0.557,0.524-1.293,0.823-2.077,0.82l-0.072-0.001c-6.231,0.028-12.471-2.33-17.23-7.079l-0.016-0.016
		c-4.748-4.759-7.107-10.998-7.079-17.23l-0.001-0.071c-0.003-0.782,0.297-1.521,0.821-2.079c0.672-0.653,1.515-1.148,2.485-1.408
		c0.927-0.249,1.864-0.251,2.74-0.05c1.074,0.232,1.981,1.048,2.285,2.182l1.313,4.947c0.434,1.617-0.526,3.277-2.141,3.711
		l-0.391,0.113c0.706,2.246,1.948,4.361,3.726,6.145c1.782,1.776,3.897,3.018,6.143,3.725l0.114-0.393
		c0.433-1.614,2.094-2.574,3.71-2.141l4.948,1.313c1.134,0.304,1.949,1.21,2.181,2.284C37.32,83.87,37.317,84.806,37.068,85.734z
		 M34.749,73.44h-1.733h-1.3c-0.717,0-1.299-0.581-1.299-1.3v-9.531c0-0.718,0.581-1.3,1.299-1.3h3.033
		c3.35,0,6.067,2.715,6.067,6.065C40.815,70.725,38.099,73.44,34.749,73.44z M34.749,63.909h-1.733v6.933h1.733
		c1.915,0,3.467-1.553,3.467-3.467C38.215,65.461,36.663,63.909,34.749,63.909z"/>
</g>
<path fill="#2EBBF0" d="M132.726,68.5h-2.127l0.298-1.732h2.129L132.726,68.5z M125.276,69.801c0,0.718,0.581,1.3,1.299,1.3h0.937
	l-0.485,2.816c-0.012,0.071-0.018,0.143-0.018,0.217c0,0.717,0.581,1.3,1.3,1.3c0.648,0,1.187-0.476,1.283-1.097l0.558-3.236h2.127
	l-0.485,2.816c-0.011,0.071-0.017,0.143-0.017,0.217c0,0.717,0.581,1.3,1.3,1.3c0.647,0,1.187-0.476,1.283-1.097l0.558-3.236h1.191
	c0.718,0,1.3-0.582,1.3-1.3c0-0.717-0.582-1.3-1.3-1.3h-0.743l0.299-1.732h1.312c0.717,0,1.299-0.583,1.299-1.3
	c0-0.718-0.583-1.299-1.299-1.299h-0.864l0.412-2.383c0.012-0.07,0.019-0.143,0.019-0.217c0-0.718-0.582-1.3-1.3-1.3
	c-0.65,0-1.188,0.476-1.285,1.097l-0.483,2.803h-2.128l0.411-2.383c0.012-0.07,0.019-0.143,0.019-0.217c0-0.718-0.582-1.3-1.3-1.3
	c-0.65,0-1.188,0.476-1.284,1.097l-0.484,2.803h-1.265c-0.719,0-1.3,0.581-1.3,1.299c0,0.717,0.581,1.3,1.3,1.3h0.817l-0.3,1.732
	h-1.385C125.857,68.5,125.276,69.083,125.276,69.801z M138.895,83.686c-0.232-1.074-1.047-1.98-2.181-2.284l-4.949-1.313
	c-1.617-0.434-3.277,0.526-3.711,2.14l-0.112,0.393c-2.248-0.706-4.362-1.949-6.144-3.725c-1.779-1.785-3.021-3.898-3.727-6.146
	l0.393-0.113c1.615-0.434,2.573-2.093,2.141-3.71l-1.313-4.948c-0.305-1.134-1.212-1.948-2.286-2.182
	c-0.876-0.201-1.813-0.199-2.741,0.052c-0.969,0.259-1.812,0.753-2.484,1.406c-0.524,0.558-0.824,1.296-0.82,2.079v0.072
	c-0.028,6.231,2.33,12.471,7.078,17.229l0.016,0.016c4.76,4.748,11,7.106,17.231,7.078l0.072,0.001
	c0.783,0.004,1.521-0.296,2.078-0.82c0.653-0.672,1.149-1.516,1.408-2.484C139.094,85.499,139.097,84.563,138.895,83.686z"/>
<path fill="#2EBBF0" d="M73.448,87.319c0.587,1.017,0.522,2.235-0.071,3.158c-0.478,0.762-1.142,1.421-1.975,1.902
	c-0.868,0.502-1.815,0.748-2.753,0.762c-0.764-0.023-1.497-0.334-2.048-0.89l-0.05-0.051c-4.426-4.385-7.171-10.466-7.18-17.19
	v-0.022c0.008-6.721,2.753-12.802,7.178-17.187l0.051-0.052c0.551-0.556,1.286-0.866,2.049-0.89c0.938,0.014,1.884,0.26,2.752,0.762
	c0.833,0.48,1.497,1.141,1.975,1.902c0.594,0.923,0.659,2.142,0.072,3.158l-2.57,4.427c-0.837,1.449-2.689,1.945-4.137,1.11
	l-0.357-0.197c-1.09,2.088-1.707,4.462-1.71,6.98c0.004,2.516,0.621,4.89,1.71,6.978l0.357-0.196c1.448-0.835,3.3-0.339,4.138,1.109
	L73.448,87.319z M90.247,74.08l-6.932-6.932c-0.425-0.425-1.072-0.494-1.569-0.206c-0.622,0.359-0.834,1.154-0.476,1.776
	l1.977,3.424l-10.37,0.692c-0.32,0.009-0.636,0.136-0.88,0.38c-0.176,0.175-0.291,0.388-0.345,0.613
	c-0.093,0.354-0.149,0.727-0.149,1.111v0.07c0,0.384,0.057,0.758,0.149,1.111c0.054,0.225,0.169,0.438,0.345,0.614
	c0.244,0.244,0.56,0.371,0.88,0.379l10.37,0.744l-1.977,3.425c-0.359,0.621-0.146,1.417,0.476,1.776
	c0.497,0.287,1.144,0.218,1.569-0.207l6.932-6.933C90.756,75.411,90.756,74.588,90.247,74.08z"/>
<path fill="#2EBBF0" d="M178.495,73.126c0.118,0.518,0.188,1.07,0.188,1.625c0,1.557-0.506,2.998-1.342,4.176
	c-0.522,0.73-1.376,1.207-2.34,1.207c-0.966,0-1.819-0.477-2.342-1.207c-0.837-1.178-1.341-2.619-1.341-4.176
	c0-0.555,0.07-1.107,0.188-1.625c0.389-1.575,1.805-2.741,3.496-2.741C176.689,70.386,178.106,71.552,178.495,73.126z
	 M189.594,87.423l-0.56-2.083c-0.116-0.432-0.433-0.752-0.826-0.889c-1.297-0.436-2.623-0.812-3.974-1.119l-1.156,4.313l-1.163-4.34
	c-2.119-0.923-4.456-1.438-6.916-1.438s-4.797,0.516-6.916,1.438l-1.163,4.34l-1.156-4.313c-1.352,0.307-2.677,0.683-3.975,1.119
	c-0.391,0.137-0.708,0.457-0.825,0.889l-0.561,2.083c-0.176,0.66,0.182,1.335,0.816,1.56c1.888,0.554,3.82,0.998,5.795,1.324
	c2.39,1.246,5.101,1.962,7.983,1.963c2.882-0.001,5.593-0.717,7.982-1.963c1.975-0.326,3.908-0.77,5.796-1.324
	C189.412,88.758,189.771,88.083,189.594,87.423z M181.066,78.402c0,1.435,1.164,2.599,2.6,2.599c1.435,0,2.6-1.165,2.6-2.599
	c0-1.437-1.165-2.601-2.6-2.601C182.23,75.801,181.066,76.965,181.066,78.402z M166.335,81.001c1.435,0,2.599-1.165,2.599-2.599
	c0-1.437-1.164-2.601-2.599-2.601c-1.436,0-2.6,1.164-2.6,2.601C163.735,79.836,164.899,81.001,166.335,81.001z M184.316,59.586
	L184.316,59.586c-0.001-0.119-0.028-0.237-0.091-0.348c-0.185-0.321-0.589-0.436-0.917-0.27l-0.002-0.001l-0.021,0.012
	c-0.004,0.002-0.006,0.002-0.011,0.005c-0.003,0.001-0.005,0.004-0.008,0.005l-3.124,1.795v3.165l3.163,1.827l0.002-0.001
	c0.203,0.103,0.45,0.104,0.661-0.018c0.223-0.128,0.345-0.361,0.345-0.6l0.002-0.002L184.316,59.586L184.316,59.586z
	 M178.755,65.053c0,0.031-0.002,0.06-0.004,0.089c-0.041,0.741-0.576,1.349-1.281,1.499c-0.017,0.003-0.035,0.006-0.052,0.009
	c-1.386,0.231-2.809,0.354-4.259,0.358h-0.118c-1.539-0.002-3.044-0.14-4.508-0.398c-0.028-0.005-0.055-0.009-0.082-0.015
	c-0.511-0.109-0.932-0.46-1.141-0.927c-0.028-0.063-0.053-0.129-0.073-0.197c-0.344-0.971-0.532-2.014-0.532-3.101
	c0-1.109,0.195-2.171,0.552-3.157c0.016-0.042,0.032-0.085,0.048-0.127c0.198-0.462,0.604-0.811,1.1-0.935
	c0.08-0.02,0.161-0.035,0.244-0.042c1.427-0.244,2.894-0.375,4.391-0.377h0.118c1.443,0.004,2.859,0.125,4.238,0.355
	c0.026,0.004,0.051,0.009,0.077,0.013c0.708,0.153,1.243,0.767,1.277,1.511c0.002,0.025,0.004,0.05,0.004,0.076
	s-0.002,0.051-0.004,0.077v5.2C178.752,64.993,178.755,65.022,178.755,65.053z"/>
<path fill="#2EBBF0" d="M220.79,82.583c0,1.076-0.874,1.95-1.95,1.95c-1.077,0-1.949-0.875-1.949-1.95
	c0-1.077,0.872-1.95,1.949-1.95C219.916,80.633,220.79,81.506,220.79,82.583z M227.032,79.517c-1.694-0.151-3.304-0.622-4.764-1.365
	h-9.1v-13.01c1.87-0.148,3.762-0.225,5.671-0.225c1.91,0,3.802,0.077,5.672,0.225v5.617c0.77,0.401,1.625,0.646,2.521,0.708V64.85
	c0-1.23-0.783-2.282-1.878-2.67c-1.859-0.665-4.015-1.045-6.315-1.045c-2.299,0-4.456,0.38-6.313,1.045
	c-1.096,0.388-1.878,1.44-1.878,2.67v9.537v0.184v8.411c0,3.25,3.667,5.884,8.191,5.884c4.526,0,8.192-2.634,8.192-5.884
	L227.032,79.517L227.032,79.517z M238.198,69.538l-7.765-2.073c-0.509-0.148-1.065,0.062-1.341,0.537
	c-0.323,0.558-0.134,1.272,0.427,1.595l3.139,1.813c-1.414,1.163-3.213,1.875-5.186,1.875c-2.973-0.001-5.572-1.586-7.005-3.953
	c-0.268-0.473-0.754-0.798-1.335-0.798c-0.86,0-1.557,0.699-1.557,1.559c-0.001,0.184,0.046,0.374,0.106,0.541
	c1.639,4.217,5.735,7.207,10.534,7.207c2.507,0,4.82-0.821,6.693-2.203v3.293c0,0.646,0.522,1.169,1.167,1.169
	c0.566-0.001,1.035-0.401,1.146-0.934l2.075-7.722C239.521,70.616,239.029,69.762,238.198,69.538z"/>
<g>
	<g>
		<g>
			<defs>
				<rect id="SVGID_1_" x="300" width="50" height="50"/>
			</defs>
			<clipPath id="SVGID_2_">
				<use xlink:href="#SVGID_1_"  overflow="visible"/>
			</clipPath>
			<circle clip-path="url(#SVGID_2_)" fill="#FF8C00" cx="338" cy="12" r="17"/>
		</g>
	</g>
	<g>
		<g>
			<defs>
				<rect id="SVGID_3_" x="300" width="50" height="50"/>
			</defs>
			<clipPath id="SVGID_4_">
				<use xlink:href="#SVGID_3_"  overflow="visible"/>
			</clipPath>
			<path clip-path="url(#SVGID_4_)" fill="#FFFFFF" d="M336.683,15.638c-0.778-1.923-1.21-4.025-1.21-6.229
				c0-0.794,0.058-1.575,0.163-2.34c0.093-1.225,1.115-2.191,2.364-2.191c1.248,0,2.27,0.966,2.363,2.191
				c0.105,0.765,0.163,1.545,0.163,2.34c0,2.204-0.432,4.306-1.21,6.229c-0.211,0.519-0.723,0.884-1.316,0.884
				S336.896,16.157,336.683,15.638z M338,18.087c-1.046,0-1.897,0.849-1.897,1.895c0,1.047,0.853,1.896,1.897,1.896
				s1.895-0.849,1.895-1.896C339.895,18.936,339.046,18.087,338,18.087z"/>
		</g>
	</g>
	<g>
		<g>
			<defs>
				<rect id="SVGID_5_" x="300" width="50" height="50"/>
			</defs>
			<clipPath id="SVGID_6_">
				<use xlink:href="#SVGID_5_"  overflow="visible"/>
			</clipPath>
			<path clip-path="url(#SVGID_6_)" fill="#FFFFFF" d="M372.101,70.967c0,0-0.524,1.449,0.678,1.521c0,0,3.08,0.073,3.528,0.435
				c0,0,1.578,0.072,3.007,1.956c0,0,1.804,2.028,2.026,2.535c0,0,0.604,0.435,1.202,0.362c0,0,0.677-0.362,0.751-0.797
				c0,0-0.601-2.825,0.827-4.129c0,0,1.052-2.752,3.681-3.622c0,0,0.901-0.652,0.676-1.449c0,0-0.147-0.869-0.976-0.869
				c0,0-3.531-0.145-5.26-1.376c0,0-2.479-1.666-2.779-3.042c0,0-0.225-0.652-0.977-0.58c0,0-0.979,0.072-0.979,0.942
				c0,0,0.075,3.549-0.977,4.708c0,0-2.629,2.535-3.381,2.825C373.152,70.388,372.401,70.605,372.101,70.967z"/>
		</g>
	</g>
</g>
<g>
	<g>
		<g>
			<defs>
				<rect id="SVGID_7_" x="300" y="50" width="50" height="50"/>
			</defs>
			<clipPath id="SVGID_8_">
				<use xlink:href="#SVGID_7_"  overflow="visible"/>
			</clipPath>
			<circle clip-path="url(#SVGID_8_)" fill="#953CAC" cx="338" cy="62" r="17"/>
		</g>
	</g>
	<g>
		<g>
			<defs>
				<rect id="SVGID_9_" x="300" y="50" width="50" height="50"/>
			</defs>
			<clipPath id="SVGID_10_">
				<use xlink:href="#SVGID_9_"  overflow="visible"/>
			</clipPath>
			<path clip-path="url(#SVGID_10_)" fill="#FFFFFF" d="M329.852,63.122c0,0-0.524,1.449,0.678,1.521c0,0,3.08,0.073,3.528,0.435
				c0,0,1.578,0.072,3.005,1.956c0,0,1.806,2.028,2.028,2.535c0,0,0.604,0.435,1.202,0.362c0,0,0.677-0.362,0.751-0.797
				c0,0-0.601-2.825,0.827-4.129c0,0,1.052-2.752,3.681-3.622c0,0,0.901-0.652,0.676-1.449c0,0-0.147-0.869-0.976-0.869
				c0,0-3.531-0.145-5.26-1.376c0,0-2.479-1.666-2.779-3.042c0,0-0.225-0.652-0.977-0.58c0,0-0.979,0.072-0.979,0.942
				c0,0,0.075,3.549-0.977,4.708c0,0-2.629,2.535-3.381,2.825C330.902,62.542,330.151,62.76,329.852,63.122z"/>
		</g>
	</g>
</g>
<g>
	<g>
		<g>
			<defs>
				<rect id="SVGID_11_" x="350" width="50" height="50"/>
			</defs>
			<clipPath id="SVGID_12_">
				<use xlink:href="#SVGID_11_"  overflow="visible"/>
			</clipPath>
			<circle clip-path="url(#SVGID_12_)" fill="#EC008C" cx="388" cy="12" r="17"/>
		</g>
	</g>
</g>
<path fill="#FFFFFF" d="M395.443,11.152l-3.168,2.77l0.911,4.143l-0.007,0.006c0.011,0.056,0.019,0.112,0.019,0.17
	c0,0.551-0.446,0.998-0.998,0.998c-0.16,0-0.311-0.041-0.443-0.106l-0.023-0.001l-3.711-2.087l-3.719,2.03l-0.009-0.007
	c-0.131,0.063-0.274,0.1-0.429,0.1c-0.552,0-0.999-0.447-0.999-0.999c0-0.058,0.008-0.115,0.017-0.171l-0.001-0.001l0.003-0.015
	c0.002-0.01,0.004-0.02,0.006-0.03L383.73,14l-3.213-2.886l0.005-0.01c-0.17-0.179-0.272-0.417-0.272-0.681
	c0-0.516,0.392-0.935,0.893-0.989l0.005-0.006l4.184-0.463l1.769-3.779h0.001c0.151-0.359,0.508-0.612,0.921-0.612
	c0.416,0,0.771,0.254,0.923,0.615l1.771,3.815l4.178,0.428l0.004,0.006c0.482,0.07,0.854,0.482,0.854,0.985
	c0,0.283-0.119,0.538-0.309,0.719L395.443,11.152z"/>
<path fill="#FFFFFF" d="M361.824,50C355.304,50,350,55.304,350,61.823c0,6.521,5.304,11.825,11.824,11.825
	c6.52,0,11.824-5.305,11.824-11.825C373.647,55.304,368.344,50,361.824,50z M361.824,72.39c-5.827,0-10.566-4.739-10.566-10.567
	c0-5.825,4.74-10.565,10.566-10.565s10.565,4.74,10.565,10.565C372.391,67.651,367.65,72.39,361.824,72.39z M361.785,53.027
	c-4.795,0-8.684,3.888-8.684,8.683s3.889,8.683,8.684,8.683c4.794,0,8.683-3.888,8.683-8.683S366.579,53.027,361.785,53.027z
	 M361.881,67.461c-3.289,0-4.76-1.617-4.76-2.828c0-0.622,0.459-1.058,1.093-1.058c1.405,0,1.042,2.022,3.667,2.022
	c1.342,0,2.086-0.731,2.086-1.478c0-0.45-0.222-0.947-1.105-1.166l-2.927-0.73c-2.354-0.59-2.78-1.864-2.78-3.06
	c0-2.486,2.341-3.419,4.537-3.419c2.022,0,4.41,1.119,4.41,2.609c0,0.639-0.553,1.01-1.186,1.01c-1.202,0-0.979-1.661-3.397-1.661
	c-1.2,0-1.865,0.543-1.865,1.32c0,0.778,0.947,1.025,1.771,1.213l2.165,0.48c2.373,0.529,2.973,1.912,2.973,3.216
	C366.56,65.953,365.01,67.461,361.881,67.461z"/>
<g>
	<path fill="#FFFFFF" d="M423.933,13.117l-1.938,0.087c0.177,0.218,0.36,0.453,0.508,0.691c0.728,1.095,1.181,2.388,1.243,3.792
		c0.186,4.135-3.024,7.647-7.16,7.833c-2.021,0.09-3.887-0.634-5.291-1.88C405.021,23.361,400,18.167,400,11.825
		C400,5.305,405.306,0,411.827,0c6.041,0,11.035,4.553,11.737,10.408l-1.312-0.291c-0.816-5.018-5.182-8.86-10.428-8.86
		c-5.828,0-10.568,4.74-10.568,10.567c0,5.828,4.74,10.568,10.568,10.568c0.373,0,0.742-0.02,1.104-0.058
		c0.856,0.547,1.878,0.844,2.971,0.796c2.833-0.125,5.035-2.535,4.906-5.368c-0.048-1.076-0.433-2.078-1.04-2.881
		c-0.064-0.082-0.133-0.161-0.204-0.24l-0.982,1.894c-0.177,0.336-0.59,0.468-0.928,0.292c-0.288-0.149-0.429-0.473-0.354-0.773
		l1.019-4.623c0.107-0.495,0.6-0.808,1.094-0.698l4.599,1.018c0.315,0.051,0.562,0.316,0.577,0.648
		C424.605,12.779,424.312,13.1,423.933,13.117z M411.693,5.746c-2.198,0-4.539,0.933-4.539,3.419c0,1.196,0.428,2.471,2.781,3.06
		l2.926,0.73c0.886,0.22,1.107,0.717,1.107,1.167c0,0.746-0.745,1.478-2.088,1.478c-2.623,0-2.262-2.023-3.666-2.023
		c-0.634,0-1.092,0.436-1.092,1.058c0,1.212,1.47,2.829,4.758,2.829c2.237,0,3.662-0.772,4.296-1.949l-0.06,0.268
		c-0.2,0.851,0.201,1.722,0.979,2.123c0.182,0.093,0.375,0.154,0.577,0.187c-1.548,1.429-3.616,2.303-5.888,2.303
		c-4.797,0-8.687-3.888-8.687-8.684c0-4.795,3.89-8.684,8.687-8.684c4.092,0,7.521,2.832,8.438,6.643l-0.55-0.122
		c-0.149-0.034-0.307-0.051-0.462-0.051c-0.994,0-1.867,0.705-2.08,1.675l-0.576,2.617c-0.044-1.26-0.685-2.561-2.968-3.07
		l-2.167-0.479c-0.821-0.188-1.77-0.434-1.77-1.213c0-0.777,0.666-1.32,1.867-1.32c2.418,0,2.195,1.661,3.397,1.661
		c0.633,0,1.188-0.371,1.188-1.01C416.105,6.866,413.717,5.746,411.693,5.746z M419.421,19.165c-0.17,0.542-0.455,1.046-0.849,1.478
		c-0.71,0.777-1.679,1.229-2.726,1.276c-0.059,0.003-0.115,0.004-0.175,0.004c-0.198,0-0.394-0.016-0.586-0.045
		C416.749,21.336,418.231,20.394,419.421,19.165z"/>
</g>
<g>
	<path fill="#FFFFFF" d="M421.938,66.85l-9.216-15.915c-0.348-0.6-0.979-0.934-1.627-0.935c-0.646,0-1.277,0.334-1.627,0.935
		l-9.215,15.915c-0.519,0.896-0.211,2.041,0.688,2.558c0.103,0.06,0.209,0.106,0.317,0.144c3.124,0.903,6.421,1.389,9.837,1.389
		s6.713-0.485,9.836-1.389c0.11-0.038,0.219-0.084,0.319-0.144C422.149,68.891,422.457,67.746,421.938,66.85z M411.095,68.721
		c-1.038,0-1.879-0.838-1.879-1.872c0-1.034,0.841-1.873,1.879-1.873s1.878,0.838,1.878,1.873
		C412.973,67.884,412.132,68.721,411.095,68.721z M412.257,62.943c-0.183,0.463-0.633,0.785-1.163,0.785
		c-0.527,0-0.979-0.322-1.163-0.785c-0.568-1.477-0.882-3.081-0.882-4.758c0-0.755,0.064-1.495,0.187-2.214
		c0.129-0.91,0.913-1.604,1.858-1.604c0.948,0,1.731,0.694,1.86,1.604c0.122,0.72,0.185,1.459,0.185,2.214
		C413.14,59.862,412.827,61.467,412.257,62.943z"/>
</g>
<path fill="#FF8C00" d="M59.901,195.928c-0.499-2.236-2.248-4.126-4.679-4.759l-10.611-2.739c-3.464-0.902-7.026,1.097-7.953,4.462
	l-0.245,0.818c-4.818-1.471-9.354-4.062-13.176-7.766c-3.812-3.718-6.477-8.124-7.991-12.811l0.84-0.236
	c3.464-0.902,5.52-4.363,4.591-7.733l-2.815-10.314c-0.651-2.364-2.596-4.064-4.897-4.55c-1.88-0.419-3.888-0.411-5.878,0.107
	c-2.077,0.54-3.887,1.572-5.328,2.935c-1.124,1.16-1.766,2.7-1.758,4.331l0.001,0.15c-0.062,12.989,4.997,25.997,15.177,35.919
	l0.034,0.034c10.208,9.896,23.589,14.813,36.953,14.754h0.153c1.68,0.008,3.26-0.615,4.454-1.709
	c1.401-1.399,2.464-3.159,3.02-5.179C60.326,199.708,60.333,197.757,59.901,195.928z"/>
<path fill="#FF8C00" d="M172.437,168.053c-1.978-8.396-8.855-14.928-17.499-16.492c-5.883-1.026-11.94-1.561-18.123-1.561
	c-6.182,0-12.236,0.534-18.12,1.561c-8.646,1.564-15.524,8.095-17.498,16.492c-0.782,2.951-1.197,6.047-1.197,9.24
	s0.415,6.288,1.197,9.24c1.974,8.396,8.852,14.928,17.498,16.491c5.123,0.895,10.381,1.39,15.735,1.509l12.421,7.088
	c0.287,0.188,0.637,0.299,1.009,0.299c1.019,0,1.84-0.815,1.84-1.82v-6.312c1.758-0.216,3.506-0.461,5.235-0.764
	c8.646-1.563,15.524-8.095,17.498-16.491c0.782-2.952,1.197-6.047,1.197-9.24S173.215,171.004,172.437,168.053z M148.78,188.813
	c0,4.69-5.357,8.495-11.965,8.495s-11.965-3.805-11.965-8.495v-26.175c0-1.774,1.146-3.29,2.743-3.855
	c2.715-0.956,5.863-1.507,9.222-1.507c3.358,0,6.507,0.551,9.222,1.507c1.6,0.565,2.743,2.081,2.743,3.855V188.813z
	 M136.815,162.737c2.79,0,5.551,0.112,8.283,0.325v18.779h-16.566v-18.779C131.266,162.849,134.027,162.737,136.815,162.737z
	 M139.578,188.208c0,1.509-1.236,2.731-2.763,2.731c-1.522,0-2.76-1.223-2.76-2.731c0-1.507,1.237-2.728,2.76-2.728
	C138.342,185.481,139.578,186.702,139.578,188.208z"/>
<path fill="#FF8C00" d="M235.71,207.911c-3.485,0-6.312-2.775-6.312-6.205c0-3.429,2.826-6.204,6.312-6.204
	c3.483,0,6.312,2.775,6.312,6.204C242.021,205.135,239.193,207.911,235.71,207.911z M252.502,188.499
	c-0.814,0-1.57-0.208-2.225-0.587c-4.299-2.412-9.27-3.786-14.568-3.786s-10.273,1.374-14.568,3.786
	c-0.658,0.379-1.414,0.587-2.228,0.587c-2.437,0-4.413-1.943-4.413-4.34c0-1.349,0.625-2.567,1.606-3.366
	c5.3-4.373,12.136-7.007,19.602-7.007c7.46,0,14.297,2.634,19.601,7.007c0.981,0.799,1.605,2.018,1.605,3.366
	C256.916,186.555,254.939,188.499,252.502,188.499z M267.156,174.9c-1.18,0-2.252-0.482-3.023-1.24
	c-7.372-6.967-17.387-11.25-28.422-11.25s-21.051,4.283-28.426,11.25c-0.771,0.758-1.843,1.24-3.021,1.24
	c-2.355,0-4.263-1.876-4.263-4.194c0-0.925,0.304-1.775,0.821-2.469C208.38,157.234,221.187,150,235.71,150
	c14.524,0,27.326,7.233,34.888,18.236c0.519,0.693,0.822,1.544,0.822,2.469C271.42,173.024,269.51,174.9,267.156,174.9z"/>
<path fill="#FF8C00" d="M324.653,169.445c-0.206-0.947-0.928-1.747-1.928-2.015l-4.365-1.16c-1.428-0.382-2.895,0.464-3.273,1.889
	l-0.101,0.347c-1.983-0.623-3.851-1.72-5.422-3.288c-1.569-1.573-2.666-3.438-3.289-5.423l0.346-0.1
	c1.425-0.382,2.271-1.847,1.889-3.274l-1.159-4.366c-0.268-1.001-1.066-1.721-2.016-1.926c-0.771-0.177-1.6-0.174-2.419,0.045
	c-0.855,0.229-1.6,0.666-2.193,1.242c-0.462,0.491-0.727,1.143-0.724,1.834v0.063c-0.025,5.5,2.056,11.006,6.246,15.207l0.014,0.014
	c4.201,4.189,9.708,6.271,15.208,6.247h0.063c0.689,0.003,1.342-0.26,1.833-0.724c0.577-0.592,1.015-1.337,1.243-2.192
	C324.828,171.045,324.831,170.219,324.653,169.445z"/>
<path fill="#FF8C00" d="M378.461,157.286c-0.777-3.389-3.479-6.024-6.875-6.656c-2.312-0.414-4.692-0.63-7.121-0.63
	s-4.808,0.216-7.12,0.63c-3.396,0.631-6.1,3.267-6.875,6.656c-0.308,1.191-0.47,2.441-0.47,3.729c0,1.289,0.163,2.539,0.47,3.73
	c0.775,3.388,3.479,6.024,6.875,6.655c2.015,0.361,4.079,0.561,6.185,0.609l4.88,2.86c0.113,0.076,0.25,0.121,0.396,0.121
	c0.4,0,0.725-0.329,0.725-0.735v-2.547c0.689-0.087,1.377-0.186,2.057-0.308c3.397-0.631,6.099-3.267,6.875-6.655
	c0.307-1.191,0.47-2.441,0.47-3.73C378.93,159.727,378.767,158.478,378.461,157.286z M369.166,165.665
	c0,1.894-2.105,3.429-4.701,3.429s-4.701-1.535-4.701-3.429v-10.563c0-0.716,0.45-1.328,1.078-1.556
	c1.067-0.386,2.306-0.608,3.624-0.608c1.319,0,2.559,0.223,3.624,0.608c0.628,0.228,1.078,0.84,1.078,1.556v10.563H369.166z
	 M364.465,155.141c1.097,0,2.184,0.045,3.254,0.13v7.58h-6.509v-7.58C362.285,155.186,363.37,155.141,364.465,155.141z
	 M365.55,165.42c0,0.609-0.483,1.103-1.085,1.103c-0.598,0-1.084-0.494-1.084-1.103c0-0.608,0.487-1.101,1.084-1.101
	C365.065,164.32,365.55,164.813,365.55,165.42z"/>
<path fill="#FF8C00" d="M414.895,174.38c-1.452,0-2.632-1.168-2.632-2.612c0-1.443,1.18-2.612,2.632-2.612
	c1.453,0,2.634,1.168,2.634,2.612S416.348,174.38,414.895,174.38z M421.899,166.208c-0.342,0-0.655-0.088-0.93-0.247
	c-1.792-1.016-3.864-1.594-6.076-1.594c-2.21,0-4.283,0.578-6.074,1.594c-0.275,0.159-0.592,0.247-0.931,0.247
	c-1.016,0-1.841-0.818-1.841-1.827c0-0.568,0.261-1.081,0.67-1.417c2.211-1.841,5.063-2.95,8.176-2.95
	c3.113,0,5.965,1.109,8.177,2.95c0.407,0.336,0.669,0.849,0.669,1.417C423.74,165.39,422.916,166.208,421.899,166.208z
	 M428.011,160.483c-0.492,0-0.938-0.203-1.261-0.522c-3.075-2.933-7.252-4.736-11.855-4.736c-4.603,0-8.779,1.803-11.855,4.736
	c-0.321,0.319-0.771,0.522-1.26,0.522c-0.982,0-1.778-0.79-1.778-1.766c0-0.389,0.127-0.748,0.342-1.04
	c3.153-4.632,8.495-7.677,14.554-7.677s11.396,3.045,14.553,7.677c0.216,0.292,0.343,0.65,0.343,1.04
	C429.79,159.693,428.994,160.483,428.011,160.483z"/>
<path fill="#FF8C00" d="M45.018,284.525c-0.375-1.683-1.689-3.103-3.517-3.577l-7.975-2.06c-2.604-0.679-5.28,0.824-5.977,3.354
	l-0.184,0.615c-3.621-1.105-7.029-3.053-9.902-5.838c-2.865-2.794-4.868-6.106-6.005-9.63l0.631-0.178
	c2.604-0.678,4.148-3.28,3.45-5.813l-2.116-7.754c-0.49-1.777-1.951-3.055-3.68-3.42c-1.413-0.315-2.922-0.309-4.418,0.081
	c-1.561,0.406-2.921,1.182-4.004,2.206c-0.844,0.872-1.327,2.029-1.321,3.256v0.113c-0.046,9.764,3.755,19.543,11.406,27.001
	l0.025,0.026c7.672,7.438,17.729,11.136,27.771,11.091h0.115c1.262,0.006,2.45-0.462,3.347-1.285
	c1.053-1.052,1.852-2.375,2.27-3.895C45.337,287.368,45.343,285.9,45.018,284.525z"/>
<path fill="#FF8C00" d="M152.387,263.053c-1.43-6.071-6.404-10.793-12.655-11.924c-4.255-0.742-8.636-1.128-13.107-1.128
	s-8.85,0.386-13.104,1.128c-6.253,1.131-11.228,5.853-12.655,11.924c-0.565,2.134-0.866,4.372-0.866,6.681s0.3,4.546,0.866,6.681
	c1.427,6.071,6.402,10.793,12.655,11.924c3.705,0.647,7.507,1.004,11.38,1.091l8.983,5.125c0.208,0.137,0.46,0.217,0.729,0.217
	c0.737,0,1.331-0.59,1.331-1.315v-4.562c1.271-0.156,2.536-0.334,3.786-0.554c6.253-1.131,11.228-5.853,12.655-11.924
	c0.566-2.135,0.866-4.372,0.866-6.681C153.25,267.425,152.95,265.187,152.387,263.053z M135.278,278.062
	c0,3.393-3.875,6.144-8.653,6.144s-8.653-2.751-8.653-6.144v-18.924c0-1.283,0.829-2.378,1.984-2.788
	c1.963-0.691,4.24-1.089,6.669-1.089s4.706,0.398,6.669,1.089c1.157,0.409,1.984,1.505,1.984,2.788V278.062z M126.625,259.209
	c2.018,0,4.015,0.082,5.991,0.235v13.578h-11.981v-13.578C122.612,259.291,124.608,259.209,126.625,259.209z M128.623,277.626
	c0,1.091-0.894,1.976-1.998,1.976c-1.101,0-1.996-0.885-1.996-1.976c0-1.089,0.895-1.972,1.996-1.972
	C127.729,275.654,128.623,276.537,128.623,277.626z"/>
<path fill="#FF8C00" d="M227.516,294.621c-2.687,0-4.863-2.139-4.863-4.781c0-2.642,2.177-4.779,4.863-4.779
	c2.685,0,4.861,2.14,4.861,4.779C232.377,292.482,230.199,294.621,227.516,294.621z M240.454,279.664
	c-0.628,0-1.21-0.161-1.714-0.453c-3.312-1.857-7.141-2.917-11.225-2.917c-4.084,0-7.917,1.06-11.227,2.917
	c-0.506,0.292-1.089,0.453-1.716,0.453c-1.877,0-3.4-1.498-3.4-3.344c0-1.04,0.481-1.979,1.238-2.594
	c4.083-3.37,9.351-5.399,15.104-5.399c5.748,0,11.017,2.029,15.103,5.399c0.757,0.615,1.237,1.554,1.237,2.594
	C243.854,278.166,242.332,279.664,240.454,279.664z M251.745,269.186c-0.909,0-1.735-0.372-2.33-0.956
	c-5.681-5.368-13.397-8.668-21.899-8.668c-8.501,0-16.221,3.3-21.904,8.668c-0.594,0.584-1.42,0.956-2.328,0.956
	c-1.814,0-3.285-1.445-3.285-3.232c0-0.712,0.234-1.368,0.632-1.902c5.825-8.478,15.692-14.051,26.883-14.051
	c11.191,0,21.055,5.573,26.881,14.051c0.398,0.535,0.633,1.19,0.633,1.902C255.029,267.74,253.559,269.186,251.745,269.186z"/>
<g>
	<path fill="#FFFFFF" d="M310.538,217.037c0,0.198-0.072,0.369-0.214,0.507c-0.146,0.141-0.357,0.211-0.633,0.211h-3.938
		c-0.307,0-0.552-0.081-0.729-0.246c-0.18-0.163-0.27-0.359-0.27-0.582c0-0.139,0.051-0.312,0.157-0.531
		c0.102-0.209,0.217-0.378,0.342-0.503c0.477-0.458,0.908-0.856,1.292-1.184c0.393-0.334,0.665-0.549,0.835-0.657
		c0.28-0.185,0.519-0.373,0.705-0.56c0.184-0.182,0.323-0.372,0.418-0.562c0.092-0.184,0.139-0.368,0.139-0.542
		c0-0.188-0.047-0.352-0.143-0.5c-0.095-0.147-0.222-0.258-0.386-0.34c-0.167-0.083-0.346-0.124-0.543-0.124
		c-0.418,0-0.738,0.167-0.979,0.511c-0.012,0.015-0.054,0.085-0.165,0.378c-0.088,0.236-0.191,0.422-0.308,0.554
		c-0.134,0.153-0.329,0.229-0.576,0.229c-0.218,0-0.402-0.069-0.548-0.204c-0.146-0.135-0.219-0.318-0.219-0.544
		c0-0.245,0.06-0.504,0.176-0.769c0.119-0.264,0.296-0.507,0.528-0.721c0.23-0.215,0.528-0.39,0.884-0.521
		c0.353-0.129,0.77-0.196,1.236-0.196c0.564,0,1.056,0.084,1.457,0.251c0.269,0.113,0.505,0.271,0.704,0.468
		c0.202,0.198,0.36,0.43,0.473,0.688c0.111,0.26,0.168,0.531,0.168,0.809c0,0.436-0.118,0.837-0.353,1.194
		c-0.225,0.346-0.46,0.623-0.696,0.822c-0.23,0.193-0.608,0.489-1.153,0.903c-0.526,0.398-0.894,0.712-1.083,0.931
		c-0.031,0.032-0.062,0.065-0.091,0.1h2.507c0.31,0,0.555,0.064,0.727,0.188C310.445,216.63,310.538,216.811,310.538,217.037z
		 M305.104,204.347c0.604,0,1.096-0.486,1.096-1.087v-2.173c0-0.6-0.491-1.086-1.096-1.086c-0.604,0-1.093,0.487-1.093,1.086v2.173
		C304.01,203.861,304.499,204.347,305.104,204.347z M316.767,204.347c0.604,0,1.096-0.486,1.096-1.087v-2.173
		c0-0.6-0.491-1.086-1.096-1.086c-0.604,0-1.093,0.487-1.093,1.086v2.173C315.674,203.861,316.163,204.347,316.767,204.347z
		 M321.87,204.347v8.71c0,1.039-0.732,1.91-1.712,2.125c-1.088,0.258-2.225,0.394-3.393,0.394c-0.135,0-0.271-0.002-0.403-0.005
		c-0.402,0-0.729,0.324-0.729,0.724c0.027,0.355,0.041,0.73,0.041,1.092c0,1.318-0.177,2.596-0.509,3.812
		c-0.264,0.905-1.105,1.571-2.101,1.571c-0.705,0.035-1.415,0.053-2.131,0.053c-3.163,0-6.239-0.355-9.197-1.028
		c-0.99-0.208-1.736-1.095-1.736-2.142v-15.304c0-1.2,0.979-2.173,2.188-2.173h0.363v1.086c0,1.401,1.146,2.536,2.553,2.536
		c1.408,0,2.552-1.135,2.552-2.536v-1.086h6.562v1.086c0,1.401,1.145,2.536,2.551,2.536c1.408,0,2.553-1.135,2.553-2.536v-1.086
		h0.363C320.891,202.174,321.87,203.147,321.87,204.347z M319.683,209.418c0-0.8-0.651-1.449-1.458-1.449h-14.58
		c-0.805,0-1.456,0.648-1.456,1.449v8.738c0,0.662,0.45,1.218,1.06,1.392c2.48,0.518,5.052,0.791,7.688,0.791
		c0.662,0,1.328-0.016,1.987-0.049c0.529,0,0.972-0.374,1.071-0.871c0.102-0.538,0.167-1.086,0.2-1.646
		c-0.395-0.005-0.752-0.078-1.067-0.221c-0.327-0.146-0.602-0.334-0.816-0.557c-0.212-0.221-0.375-0.454-0.483-0.693
		c-0.112-0.246-0.167-0.447-0.167-0.615c0-0.228,0.076-0.416,0.228-0.557c0.149-0.141,0.336-0.212,0.557-0.212
		c0.116,0,0.23,0.035,0.34,0.103c0.109,0.07,0.187,0.158,0.223,0.263c0.164,0.435,0.341,0.761,0.525,0.97
		c0.16,0.181,0.382,0.271,0.67,0.281c-0.005-0.127-0.003-0.256-0.011-0.382c-0.01-0.073-0.015-0.146-0.015-0.221
		c0-0.666,0.307-1.15,0.782-1.45c-0.171-0.118-0.384-0.179-0.653-0.179c-0.062,0-0.158,0.008-0.293,0.021
		c-0.145,0.014-0.236,0.02-0.278,0.02c-0.218,0-0.389-0.057-0.514-0.17c-0.127-0.117-0.19-0.275-0.19-0.475
		c0-0.198,0.077-0.362,0.228-0.484c0.145-0.118,0.352-0.176,0.614-0.176h0.204c0.271,0,0.501-0.077,0.697-0.236
		c0.188-0.15,0.277-0.366,0.277-0.656c0-0.218-0.074-0.4-0.225-0.558c-0.15-0.155-0.351-0.23-0.608-0.23
		c-0.182,0-0.331,0.024-0.441,0.072c-0.109,0.047-0.197,0.109-0.261,0.183c-0.065,0.082-0.134,0.192-0.194,0.325
		c-0.067,0.144-0.128,0.278-0.186,0.406c-0.048,0.101-0.131,0.177-0.246,0.23c-0.233,0.108-0.565,0.108-0.811-0.127
		c-0.137-0.131-0.207-0.308-0.207-0.521c0-0.192,0.058-0.396,0.172-0.603c0.112-0.202,0.275-0.396,0.485-0.575
		c0.212-0.181,0.476-0.327,0.788-0.435c0.579-0.202,1.361-0.22,1.956-0.025c0.276,0.091,0.522,0.227,0.729,0.4
		c0.21,0.176,0.37,0.384,0.478,0.617c0.105,0.232,0.159,0.486,0.159,0.753c0,0.352-0.079,0.658-0.233,0.913
		c-0.124,0.2-0.291,0.399-0.499,0.591c0.193,0.121,0.369,0.254,0.514,0.399c0.051,0.052,0.09,0.108,0.135,0.163
		c0.071,0.001,0.144,0.003,0.214,0.003c0.677,0,1.347-0.051,1.998-0.149c0.519-0.087,0.917-0.541,0.917-1.08v-3.481H319.683z"/>
</g>
<path fill="#FFFFFF" d="M367.91,209.803c0,3.29-1.958,6.122-4.771,7.396c-0.1,0.037-0.216,0.057-0.33,0.057
	c-0.513,0-0.93-0.416-0.93-0.93c0-0.128,0.026-0.25,0.074-0.362c0.137-0.324,0.211-0.681,0.211-1.054
	c0-0.647-0.229-1.242-0.607-1.708c-0.386-0.467-0.61-1.062-0.611-1.715c0-0.713,0.272-1.359,0.724-1.842
	c0.307-0.306,0.496-0.729,0.496-1.195c0-0.671-0.392-1.251-0.959-1.524c-0.505-0.226-1.07-0.351-1.658-0.351
	c-0.49,0-0.955,0.081-1.389,0.24c-0.095,0.032-0.197,0.05-0.302,0.05c-0.515,0-0.931-0.416-0.931-0.93
	c0-0.372,0.223-0.687,0.537-0.834c0.285-0.159,0.479-0.464,0.479-0.813c0-0.413-0.268-0.762-0.64-0.883
	c-0.3-0.069-0.522-0.338-0.522-0.659c0-0.297,0.19-0.552,0.458-0.643c0.805-0.268,1.667-0.413,2.562-0.413
	c2.525,0,4.783,1.155,6.271,2.966c0.088,0.114,0.146,0.261,0.146,0.417c0,0.374-0.302,0.676-0.676,0.676
	c-0.038,0-0.077-0.003-0.114-0.009c-0.183-0.025-0.369-0.041-0.56-0.041c-0.271,0-0.536,0.026-0.792,0.078
	c-0.316,0.057-0.562,0.334-0.562,0.667c0,0.374,0.305,0.676,0.677,0.676c0.053,0,0.104-0.006,0.151-0.018
	c0.332-0.087,0.673-0.132,1.032-0.132c0.471,0,0.922,0.082,1.343,0.23c0.584,0.211,1.02,0.734,1.099,1.37
	C367.878,208.974,367.91,209.385,367.91,209.803z M359.8,200c-5.413,0-9.8,4.389-9.8,9.803c0,5.414,4.387,9.803,9.8,9.803
	c5.412,0,9.799-4.389,9.799-9.803C369.599,204.39,365.212,200,359.8,200z M357.75,213.701c-0.923,0.734-2.086,1.173-3.357,1.173
	c-0.141,0-0.277-0.005-0.418-0.016c-0.024,0-0.051,0-0.076-0.003c-0.328-0.024-0.62-0.202-0.788-0.464
	c-0.335-0.489-0.62-1.018-0.845-1.576c-0.054-0.123-0.082-0.265-0.082-0.408c0-0.222,0.073-0.427,0.194-0.594
	c0.384-0.515,0.695-1.085,0.921-1.697c0.422-1.173,1.548-2.034,2.866-2.034c0.008,0,0.014,0,0.021,0
	c0.374,0,0.678,0.303,0.678,0.676c0,0.081-0.014,0.163-0.038,0.234c-0.044,0.15-0.067,0.31-0.067,0.474
	c0,0.604,0.319,1.134,0.796,1.432c0.509,0.292,0.853,0.84,0.853,1.467C358.405,212.909,358.149,213.392,357.75,213.701z
	 M374,213.465c0-0.56-0.454-1.014-1.013-1.014c-0.475,0-0.87,0.333-0.982,0.769c-0.564,2.032-1.646,3.95-3.245,5.548
	c-1.586,1.586-3.49,2.665-5.505,3.234c-0.432,0.116-0.752,0.511-0.752,0.979c0,0.56,0.454,1.014,1.014,1.014
	c0.016,0,0.036,0.005,0.05,0.005c2.592-0.23,5.122-1.336,7.104-3.321c1.979-1.98,3.085-4.503,3.318-7.089
	C373.994,213.551,374,213.506,374,213.465z"/>
<g>
	<path fill="#FFFFFF" d="M417.548,213.479l-7.372-12.73c-0.277-0.48-0.783-0.747-1.302-0.748c-0.519,0-1.023,0.268-1.301,0.748
		l-7.372,12.73c-0.415,0.717-0.168,1.632,0.55,2.046c0.082,0.047,0.167,0.085,0.255,0.115c2.499,0.723,5.136,1.111,7.868,1.111
		c2.733,0,5.371-0.388,7.869-1.111c0.088-0.03,0.174-0.068,0.255-0.115C417.718,215.111,417.963,214.195,417.548,213.479z
		 M408.875,214.975c-0.83,0-1.503-0.67-1.503-1.498c0-0.827,0.673-1.498,1.503-1.498s1.503,0.671,1.503,1.498
		C410.377,214.305,409.705,214.975,408.875,214.975z M409.805,210.354c-0.146,0.37-0.506,0.628-0.93,0.628
		c-0.423,0-0.783-0.258-0.93-0.628c-0.456-1.181-0.706-2.464-0.706-3.806c0-0.604,0.051-1.195,0.146-1.771
		c0.104-0.728,0.73-1.282,1.488-1.282s1.385,0.555,1.488,1.282c0.098,0.576,0.146,1.168,0.146,1.771
		C410.51,207.889,410.261,209.172,409.805,210.354z"/>
</g>
<path fill="#FFFFFF" d="M417.076,250c9.431,0,17.076,7.372,17.076,16.466c0,9.093-7.646,16.466-17.076,16.466
	c-9.433,0-17.076-7.373-17.076-16.466S407.645,250,417.076,250z M408.898,267.801c0,0-0.526,1.449,0.676,1.521
	c0,0,3.08,0.073,3.531,0.435c0,0,1.576,0.072,3.005,1.956c0,0,1.803,2.028,2.026,2.535c0,0,0.603,0.435,1.202,0.362
	c0,0,0.676-0.362,0.751-0.797c0,0-0.601-2.825,0.826-4.129c0,0,1.052-2.752,3.681-3.622c0,0,0.901-0.652,0.678-1.449
	c0,0-0.15-0.869-0.979-0.869c0,0-3.531-0.145-5.259-1.376c0,0-2.479-1.666-2.78-3.042c0,0-0.225-0.652-0.977-0.58
	c0,0-0.979,0.072-0.979,0.941c0,0,0.075,3.55-0.977,4.709c0,0-2.629,2.535-3.38,2.825
	C409.95,267.221,409.198,267.438,408.898,267.801z"/>
<g>
	<g>
		<g>
			<defs>
				<rect id="SVGID_13_" x="300" y="250" width="67" height="67"/>
			</defs>
			<clipPath id="SVGID_14_">
				<use xlink:href="#SVGID_13_"  overflow="visible"/>
			</clipPath>
			<path clip-path="url(#SVGID_14_)" fill="#FFFFFF" d="M342.5,232c23.472,0,42.5,19.028,42.5,42.501
				C385,297.973,365.972,317,342.5,317c-23.473,0-42.5-19.027-42.5-42.499C300,251.028,319.027,232,342.5,232z M322.146,277.945
				c0,0-1.311,3.738,1.682,3.926c0,0,7.666,0.188,8.788,1.123c0,0,3.926,0.188,7.479,5.047c0,0,4.486,5.234,5.048,6.544
				c0,0,1.495,1.123,2.991,0.935c0,0,1.685-0.935,1.871-2.057c0,0-1.496-7.291,2.058-10.656c0,0,2.616-7.104,9.16-9.349
				c0,0,2.244-1.684,1.685-3.74c0,0-0.374-2.244-2.433-2.244c0,0-8.787-0.373-13.088-3.551c0,0-6.17-4.3-6.918-7.853
				c0,0-0.561-1.683-2.431-1.496c0,0-2.431,0.187-2.431,2.43c0,0,0.187,9.162-2.432,12.154c0,0-6.544,6.543-8.414,7.291
				C324.763,276.449,322.893,277.01,322.146,277.945z"/>
		</g>
	</g>
</g>
<path fill="none" d="M12.23,307.445v-2.359L6.115,300L0,305.057v2.389l6.115-5.146L12.23,307.445z"/>
<path fill="none" d="M50,300v2.359l6.115,5.086l6.115-5.057V300l-6.115,5.146L50,300z"/>
<g>
	<path fill="#FF8C00" d="M24.073,318.492l-10.112-17.467c-0.383-0.657-1.075-1.024-1.787-1.024c-0.711,0-1.403,0.367-1.785,1.024
		L0.276,318.492c-0.569,0.982-0.231,2.238,0.754,2.807c0.112,0.065,0.229,0.117,0.35,0.158c3.428,0.991,7.045,1.523,10.794,1.523
		s7.368-0.532,10.794-1.523c0.121-0.041,0.238-0.093,0.35-0.158C24.306,320.73,24.643,319.475,24.073,318.492z M12.174,320.545
		c-1.139,0-2.062-0.92-2.062-2.055s0.923-2.055,2.062-2.055c1.139,0,2.062,0.92,2.062,2.055S13.313,320.545,12.174,320.545z
		 M13.45,314.204c-0.2,0.508-0.694,0.862-1.276,0.862c-0.581,0-1.074-0.354-1.275-0.862c-0.625-1.62-0.968-3.381-0.968-5.222
		c0-0.828,0.069-1.642,0.202-2.432c0.142-0.999,1.002-1.759,2.041-1.759c1.04,0,1.9,0.763,2.042,1.759
		c0.134,0.79,0.203,1.604,0.203,2.432C14.418,310.823,14.076,312.584,13.45,314.204z"/>
</g>
<path fill="#FFFFFF" d="M58.909,318.616l6.716-6.814c0.5-0.507,0.5-1.329,0-1.837c-0.401-0.406-1.002-0.486-1.483-0.24l-3.095,1.814
	l-0.808-10.072c-0.042-0.582-0.378-1.076-0.9-1.24C58.918,300.08,58.47,300,58,300s-0.918,0.08-1.339,0.225
	c-0.522,0.166-0.858,0.66-0.901,1.241l-0.808,10.072l-3.094-1.815c-0.48-0.246-1.082-0.166-1.483,0.241c-0.5,0.507-0.5,1.33,0,1.837
	l6.716,6.814C57.323,318.854,57.645,319,58,319S58.677,318.854,58.909,318.616z"/>
<path fill="#FFFFFF" d="M112.23,300v2.357l-6.115,5.086L100,302.389V300l6.115,5.146L112.23,300z"/>
<path fill="#FFFFFF" d="M162.23,307.445v-2.359L156.115,300L150,305.057v2.389l6.115-5.146L162.23,307.445z"/>
<path fill="#B1E7FA" d="M210.83,305.415c0,0.547-0.404,0.999-0.931,1.073c-1.032,0.14-2.08,0.229-3.139,0.273
	c-0.043,1.059-0.135,2.106-0.273,3.139c-0.073,0.525-0.525,0.933-1.073,0.932c-0.546,0.001-0.998-0.404-1.072-0.932
	c-0.139-1.031-0.23-2.08-0.273-3.139c-1.059-0.044-2.107-0.136-3.138-0.273c-0.526-0.073-0.93-0.525-0.93-1.071
	s0.405-0.999,0.93-1.073c1.031-0.139,2.08-0.229,3.138-0.273c0.044-1.06,0.135-2.106,0.273-3.139c0.075-0.523,0.526-0.93,1.072-0.93
	c0.547,0,1,0.405,1.073,0.93c0.139,1.031,0.23,2.079,0.273,3.139c1.059,0.044,2.107,0.135,3.139,0.272
	C210.426,304.417,210.83,304.869,210.83,305.415z"/>
<path fill="#ED2024" d="M11.5,350C5.149,350,0,355.148,0,361.5S5.149,373,11.5,373S23,367.852,23,361.5S17.851,350,11.5,350z
	 M11.5,369.318c-1.035,0-1.873-0.84-1.873-1.873c0-1.035,0.838-1.873,1.873-1.873s1.873,0.838,1.873,1.873
	C13.373,368.479,12.535,369.318,11.5,369.318z M12.685,363.535c-0.19,0.467-0.649,0.795-1.185,0.795s-0.995-0.329-1.185-0.795
	c-0.701-1.73-1.089-3.624-1.089-5.605c0-0.715,0.049-1.418,0.147-2.105c0.082-1.104,1.003-1.973,2.127-1.973
	c1.123,0,2.044,0.869,2.126,1.973c0.098,0.688,0.147,1.392,0.147,2.105C13.774,359.912,13.386,361.803,12.685,363.535z"/>
<path fill="#00AFF0" d="M61.5,350c-6.351,0-11.5,5.148-11.5,11.5S55.149,373,61.5,373S73,367.852,73,361.5S67.852,350,61.5,350z
	 M61.258,353.789c1.072,0,1.943,0.871,1.943,1.943c0,1.074-0.871,1.941-1.943,1.941c-1.073,0-1.943-0.867-1.943-1.941
	C59.314,354.66,60.185,353.789,61.258,353.789z M64.739,367.868c-0.491,0.806-1.375,1.344-2.389,1.344
	c-1.542,0-2.793-1.25-2.793-2.793v-3.765c0-0.479-0.348-0.877-0.803-0.957c-0.343-0.062-0.602-0.356-0.602-0.717
	c0-0.14,0.041-0.271,0.108-0.383c0.491-0.807,1.376-1.345,2.389-1.345c1.543,0,2.794,1.251,2.794,2.793v3.767
	c0,0.479,0.348,0.877,0.803,0.957c0.342,0.06,0.6,0.354,0.6,0.715C64.847,367.624,64.807,367.757,64.739,367.868z"/>
<path fill="#7FBA00" d="M111.5,350c-6.351,0-11.5,5.148-11.5,11.5s5.148,11.5,11.5,11.5s11.5-5.148,11.5-11.5S117.851,350,111.5,350
	 M116.923,358.898c-0.853,1.303-1.852,2.537-2.996,3.682c-1.14,1.141-2.37,2.136-3.667,2.986c-0.162,0.098-0.354,0.156-0.557,0.156
	c-0.223,0-0.43-0.063-0.602-0.18c-0.576-0.396-1.123-0.85-1.634-1.357c-0.5-0.5-0.944-1.035-1.333-1.597
	c-0.13-0.179-0.205-0.401-0.205-0.64c0-0.596,0.482-1.078,1.078-1.078c0.227,0,0.438,0.068,0.612,0.189
	c0.572,0.395,1.115,0.84,1.624,1.349l0.267,0.268l2.258-2.257c1.116-1.115,2.318-2.093,3.584-2.934
	c0.179-0.131,0.4-0.211,0.64-0.211c0.596,0,1.078,0.483,1.078,1.078C117.07,358.555,117.017,358.739,116.923,358.898"/>
<g id="Shape:_circle">
	<g>
		<circle fill="#333534" cx="168" cy="368" r="18"/>
	</g>
</g>
<g id="vector:_close_icon">
	<g>
		<path fill="#FFFFFF" d="M175.102,372.878c-1.133-1.509-2.354-2.966-3.654-4.379c1.301-1.411,2.521-2.868,3.654-4.377
			c0.551-0.763,0.482-1.834-0.203-2.521c-0.688-0.688-1.758-0.757-2.521-0.203c-1.508,1.134-2.965,2.354-4.377,3.652
			c-1.412-1.301-2.868-2.521-4.377-3.652c-0.762-0.551-1.834-0.482-2.521,0.203c-0.686,0.688-0.754,1.758-0.203,2.521
			c1.133,1.509,2.354,2.966,3.654,4.377c-1.301,1.413-2.522,2.87-3.656,4.379c-0.55,0.763-0.482,1.834,0.204,2.521
			c0.687,0.688,1.758,0.754,2.52,0.203c1.509-1.134,2.966-2.354,4.378-3.653c1.414,1.301,2.869,2.521,4.379,3.653
			c0.762,0.551,1.834,0.483,2.521-0.203C175.586,374.713,175.652,373.641,175.102,372.878z"/>
	</g>
</g>
<path fill="#00AFF0" d="M291.945,308.277l-0.062-0.061c-5.197-5.064-12.402-8.208-20.369-8.218h-0.027
	c-7.969,0.01-15.176,3.151-20.372,8.219l-0.06,0.06c-0.662,0.631-1.027,1.471-1.055,2.346c0.016,1.072,0.307,2.157,0.9,3.15
	c0.572,0.955,1.353,1.713,2.257,2.26c1.093,0.682,2.538,0.756,3.739,0.083l5.248-2.941c1.717-0.958,2.308-3.079,1.314-4.735
	l-0.232-0.408c2.477-1.248,5.289-1.955,8.271-1.96c2.983,0.005,5.797,0.711,8.271,1.959l-0.23,0.407
	c-0.99,1.66-0.403,3.778,1.312,4.737l5.248,2.941c1.205,0.671,2.648,0.599,3.742-0.083c0.902-0.547,1.686-1.307,2.256-2.26
	c0.594-0.993,0.887-2.078,0.902-3.15C292.973,309.748,292.604,308.907,291.945,308.277"/>
<path fill="#00AFF0" d="M288.788,327.255l-0.644-4.878c-0.002-0.007-0.002-0.014-0.002-0.021c-0.102-0.584-0.484-1.071-1.009-1.342
	l-3.28-1.854l-4.959-2.782c-2.158-1.203-3.304-3.458-3.144-5.71c-1.36-0.419-2.785-0.632-4.25-0.635H271.5l0,0h-0.001
	c-1.465,0.002-2.888,0.215-4.251,0.635c0.16,2.253-0.984,4.508-3.143,5.71l-4.959,2.782l-3.283,1.854
	c-0.521,0.271-0.905,0.758-1.006,1.342c-0.002,0.009-0.002,0.017-0.002,0.021l-0.646,4.878c-0.144,0.858,0.575,1.712,1.397,2.06
	c0.271,0.113,0.623,0.224,1,0.304c4.844,0.981,9.74,1.383,14.889,1.383h0.001h0.001h0.001c5.146,0,10.043-0.399,14.887-1.383
	c0.378-0.081,0.729-0.188,1.003-0.304C288.211,328.968,288.932,328.114,288.788,327.255 M271.5,325.468
	c-1.984,0-3.596-1.556-3.596-3.473c0-1.916,1.609-3.472,3.596-3.472s3.596,1.556,3.596,3.472
	C275.094,323.912,273.484,325.468,271.5,325.468"/>
<path fill="#00AFF0" d="M403.079,322.855v-17.943c2.282-0.182,4.592-0.273,6.921-0.273c2.332,0,4.639,0.094,6.923,0.273v17.943
	H403.079z M412.379,328.422c0,1.319-1.063,2.389-2.38,2.391c-1.314-0.002-2.378-1.069-2.378-2.391c0-1.32,1.062-2.391,2.378-2.391
	C411.314,326.032,412.379,327.102,412.379,328.422 M420,312.666v-8.112c0-1.507-0.956-2.797-2.292-3.272
	c-1.041-0.373-2.159-0.67-3.333-0.887C412.986,300.141,411.52,300,410,300s-2.987,0.141-4.375,0.395
	c-1.173,0.217-2.292,0.514-3.331,0.887c-1.338,0.477-2.293,1.767-2.293,3.272v22.233c0,3.287,3.049,6.055,7.218,6.925
	c0.884,0.183,1.815,0.289,2.781,0.289c0.967,0,1.899-0.106,2.783-0.289c4.167-0.871,7.217-3.638,7.217-6.925V312.666z"/>
<path fill="#2CABE1" d="M213.795,351.15c0.058-0.01,0.114-0.021,0.171-0.033c0.055,0.029,0.112,0.056,0.167,0.086L213.795,351.15z
	 M201.224,363.977c-0.01,0.06-0.018,0.117-0.028,0.176c0.03,0.055,0.056,0.108,0.086,0.162L201.224,363.977z M232.775,370.025
	c0.013-0.062,0.021-0.121,0.031-0.183c-0.029-0.053-0.058-0.108-0.089-0.161L232.775,370.025z M219.664,382.686
	c0.054,0.031,0.11,0.06,0.164,0.09c0.059-0.012,0.119-0.02,0.178-0.028L219.664,382.686z M234.01,374.48
	c0,2.547-0.986,4.938-2.783,6.737c-1.795,1.802-4.184,2.792-6.722,2.792c-1.645,0-3.255-0.429-4.677-1.234
	c0.059-0.012,0.119-0.021,0.178-0.029l-0.342-0.061c0.054,0.03,0.11,0.059,0.164,0.09c-0.923,0.164-1.869,0.25-2.813,0.25
	c-2.167,0-4.271-0.426-6.251-1.269c-1.913-0.809-3.63-1.971-5.105-3.448c-1.474-1.479-2.633-3.199-3.441-5.117
	c-0.838-1.983-1.263-4.092-1.263-6.267c0-0.931,0.083-1.862,0.242-2.772c0.03,0.054,0.056,0.109,0.086,0.162l-0.058-0.338
	c-0.01,0.059-0.018,0.116-0.028,0.176c-0.78-1.408-1.196-3-1.196-4.621c0-2.545,0.989-4.939,2.784-6.739
	c1.795-1.801,4.184-2.792,6.723-2.792c1.556,0,3.092,0.389,4.459,1.117c-0.057,0.012-0.114,0.021-0.171,0.033l0.339,0.054
	c-0.055-0.03-0.112-0.058-0.167-0.086c0.002-0.001,0.005-0.001,0.007-0.001c0.996-0.191,2.019-0.287,3.041-0.287
	c2.167,0,4.271,0.425,6.251,1.266c1.912,0.811,3.629,1.971,5.104,3.448c1.477,1.478,2.633,3.2,3.441,5.118
	c0.838,1.984,1.264,4.092,1.264,6.266c0,0.98-0.094,1.961-0.268,2.918c-0.029-0.053-0.058-0.109-0.088-0.162l0.057,0.344
	c0.013-0.061,0.021-0.121,0.031-0.182C233.592,371.257,234.01,372.855,234.01,374.48 M218.296,373.102
	c0-0.883-0.714-1.598-1.594-1.598c-0.881,0-1.594,0.715-1.594,1.598s0.713,1.6,1.594,1.6
	C217.583,374.7,218.296,373.984,218.296,373.102 M222.06,368.582c0-0.348-0.158-0.661-0.406-0.866
	c-1.339-1.127-3.066-1.806-4.951-1.806c-1.886,0-3.613,0.679-4.952,1.806c-0.248,0.205-0.406,0.519-0.406,0.866
	c0,0.618,0.5,1.118,1.115,1.118c0.206,0,0.396-0.054,0.563-0.151c1.085-0.621,2.341-0.975,3.681-0.975
	c1.339,0,2.595,0.354,3.68,0.975c0.165,0.098,0.356,0.151,0.562,0.151C221.56,369.7,222.06,369.2,222.06,368.582 M225.725,365.118
	c0-0.239-0.078-0.458-0.209-0.636c-1.91-2.834-5.144-4.697-8.812-4.697s-6.904,1.863-8.814,4.697
	c-0.131,0.179-0.208,0.396-0.208,0.636c0,0.597,0.482,1.08,1.077,1.08c0.297,0,0.568-0.124,0.763-0.319
	c1.863-1.794,4.393-2.896,7.181-2.896s5.318,1.104,7.18,2.896c0.195,0.195,0.466,0.319,0.764,0.319
	C225.241,366.198,225.725,365.714,225.725,365.118"/>
<g>
	<path fill="#00AFF0" d="M263.984,352c6.606,0,11.983,5.383,11.983,12s-5.376,12-11.983,12c-6.609,0-11.984-5.383-11.984-12
		S257.376,352,263.984,352 M263.984,350c-7.723,0-13.984,6.27-13.984,14c0,7.732,6.262,14,13.984,14c7.724,0,13.983-6.268,13.983-14
		C277.969,356.27,271.708,350,263.984,350L263.984,350z"/>
</g>
<g>
	<path fill="#00AFF0" d="M262.656,358.281l-4.428,5.047c-0.326,0.372-0.326,0.975,0,1.346l4.426,5.049
		c0.15,0.17,0.361,0.278,0.592,0.278c0.46,0,0.834-0.428,0.835-0.952c0-0.16-0.035-0.311-0.097-0.441l-1.359-2.699l6.516-0.479
		c0.461,0,0.83-0.43,0.83-0.953c0.01-0.152,0.014-0.309,0.014-0.463c0-0.156-0.004-0.332-0.014-0.484
		c0-0.525-0.369-0.955-0.83-0.955l-6.516-0.477l1.359-2.701c0.062-0.131,0.097-0.279,0.097-0.441
		c-0.001-0.523-0.375-0.95-0.835-0.952C263.016,358.002,262.807,358.109,262.656,358.281z"/>
</g>
<path fill="#00AFF0" d="M352.771,370.164v-15.83c2.053-0.16,4.133-0.242,6.228-0.242c2.098,0,4.175,0.083,6.229,0.242v15.83H352.771
	z M361.14,375.075c0,1.164-0.958,2.106-2.142,2.108c-1.182-0.002-2.14-0.944-2.14-2.108c0-1.165,0.958-2.109,2.14-2.109
	C360.182,372.966,361.14,373.91,361.14,375.075 M367.998,361.174v-7.156c0-1.33-0.86-2.469-2.063-2.889
	c-0.937-0.329-1.941-0.59-3-0.781c-1.249-0.225-2.567-0.348-3.937-0.348s-2.688,0.124-3.938,0.348
	c-1.056,0.19-2.062,0.452-2.997,0.781c-1.204,0.42-2.063,1.559-2.063,2.889v19.614c0,2.9,2.744,5.341,6.496,6.11
	c0.796,0.16,1.634,0.254,2.503,0.254c0.87,0,1.709-0.094,2.505-0.254c3.75-0.77,6.495-3.21,6.495-6.11V361.174L367.998,361.174z"/>
<g>
	<path fill="#00AFF0" d="M313.984,352c6.606,0,11.982,5.383,11.982,12s-5.376,12-11.982,12c-6.608,0-11.984-5.383-11.984-12
		S307.376,352,313.984,352 M313.984,350c-7.726,0-13.985,6.268-13.985,14c0,7.73,6.261,14,13.985,14c7.723,0,13.982-6.27,13.982-14
		C327.969,356.268,321.708,350,313.984,350L313.984,350z"/>
</g>
<g>
	<path fill="#00AFF0" d="M315.312,369.721l4.429-5.048c0.325-0.372,0.325-0.975-0.001-1.346l-4.426-5.05
		c-0.15-0.17-0.361-0.277-0.593-0.277c-0.46,0-0.834,0.428-0.835,0.952c0,0.159,0.035,0.312,0.099,0.442l1.357,2.698l-6.515,0.479
		c-0.461,0-0.831,0.429-0.831,0.951c-0.01,0.153-0.014,0.31-0.014,0.465c0,0.154,0.004,0.33,0.014,0.484
		c0,0.524,0.37,0.954,0.83,0.954l6.516,0.478l-1.357,2.699c-0.062,0.133-0.099,0.28-0.099,0.442c0.001,0.524,0.375,0.95,0.835,0.952
		C314.953,369.999,315.162,369.893,315.312,369.721z"/>
</g>
<path fill="#00AFF0" d="M410.495,373.201c0,1.164-0.913,2.109-2.038,2.109c-1.126,0-2.037-0.947-2.037-2.109
	c0-1.165,0.911-2.11,2.037-2.11S410.495,372.036,410.495,373.201z M417.019,369.884c-1.771-0.163-3.45-0.673-4.979-1.477h-9.509
	v-14.072c1.954-0.16,3.932-0.244,5.926-0.244c1.996,0,3.973,0.083,5.927,0.244v6.075c0.807,0.434,1.698,0.699,2.634,0.766v-7.156
	c0-1.332-0.816-2.469-1.963-2.889c-1.94-0.719-4.193-1.13-6.599-1.13c-2.403,0-4.657,0.412-6.597,1.13
	c-1.146,0.42-1.963,1.559-1.963,2.889v10.314v0.199v9.098c0,3.516,3.83,6.365,8.56,6.365c4.729,0,8.562-2.85,8.562-6.365
	L417.019,369.884L417.019,369.884z M428.688,359.09l-8.113-2.242c-0.53-0.16-1.114,0.065-1.4,0.58
	c-0.338,0.604-0.14,1.377,0.444,1.727l3.28,1.962c-1.479,1.258-3.356,2.028-5.42,2.028c-3.104-0.002-5.82-1.715-7.317-4.274
	c-0.28-0.513-0.788-0.864-1.396-0.864c-0.896,0-1.627,0.756-1.627,1.688c-0.001,0.199,0.048,0.406,0.111,0.586
	c1.712,4.562,5.993,7.795,11.007,7.795c2.618,0,5.037-0.889,6.994-2.383v3.562c0,0.699,0.546,1.267,1.219,1.267
	c0.594-0.002,1.083-0.437,1.198-1.012l2.169-8.354C430.069,360.257,429.555,359.333,428.688,359.09z"/>
<path fill="#00AFF0" d="M81.211,456.408l-0.046-0.045c-3.868-3.921-9.229-6.354-15.157-6.362h-0.019
	c-5.93,0.008-11.292,2.44-15.16,6.362l-0.044,0.045c-0.492,0.488-0.765,1.138-0.785,1.813c0.011,0.831,0.228,1.669,0.669,2.439
	c0.426,0.738,1.007,1.326,1.68,1.749c0.813,0.525,1.888,0.585,2.783,0.062l3.905-2.275c1.277-0.741,1.717-2.383,0.979-3.666
	l-0.173-0.316c1.842-0.966,3.935-1.513,6.154-1.517c2.221,0.003,4.313,0.55,6.155,1.516l-0.172,0.316
	c-0.737,1.284-0.3,2.925,0.978,3.667l3.905,2.275c0.896,0.521,1.97,0.463,2.785-0.062c0.671-0.423,1.254-1.011,1.678-1.749
	c0.443-0.771,0.66-1.608,0.672-2.439C81.975,457.546,81.701,456.895,81.211,456.408"/>
<path fill="#00AFF0" d="M78.862,471.099l-0.479-3.774c-0.001-0.005-0.001-0.011-0.002-0.019c-0.074-0.453-0.36-0.831-0.749-1.039
	l-2.441-1.436l-3.691-2.153c-1.605-0.931-2.457-2.677-2.337-4.42c-1.014-0.325-2.072-0.49-3.162-0.492H66h-0.001l0,0
	c-1.09,0.002-2.149,0.167-3.163,0.492c0.119,1.744-0.732,3.489-2.338,4.42l-3.69,2.153l-2.442,1.436
	c-0.389,0.208-0.674,0.586-0.75,1.039c-0.001,0.005-0.001,0.013-0.001,0.019l-0.479,3.774c-0.106,0.664,0.428,1.325,1.041,1.596
	c0.201,0.088,0.464,0.172,0.745,0.232c3.604,0.761,7.248,1.07,11.078,1.07l0,0h0.001H66c3.829,0,7.473-0.312,11.078-1.07
	c0.28-0.062,0.542-0.146,0.745-0.232C78.433,472.424,78.968,471.763,78.862,471.099 M65.998,469.715
	c-1.477,0-2.675-1.205-2.675-2.688c0-1.483,1.198-2.688,2.675-2.688c1.478,0,2.675,1.204,2.675,2.688
	C68.672,468.51,67.475,469.715,65.998,469.715"/>
<path fill="#2CABE1" d="M112.167,451.015c0.051-0.01,0.101-0.019,0.151-0.027c0.049,0.024,0.099,0.049,0.148,0.075L112.167,451.015z
	 M101.08,462.327c-0.009,0.051-0.016,0.103-0.025,0.155c0.026,0.047,0.05,0.096,0.076,0.143L101.08,462.327z M128.908,467.661
	c0.01-0.053,0.018-0.106,0.027-0.159c-0.027-0.047-0.051-0.097-0.078-0.144L128.908,467.661z M117.343,478.827
	c0.047,0.028,0.097,0.052,0.145,0.079c0.052-0.009,0.105-0.018,0.157-0.025L117.343,478.827z M129.996,471.591
	c0,2.246-0.871,4.356-2.456,5.943c-1.583,1.588-3.689,2.462-5.928,2.462c-1.45,0-2.871-0.378-4.125-1.09
	c0.052-0.009,0.105-0.018,0.157-0.025l-0.302-0.054c0.047,0.028,0.097,0.052,0.145,0.079c-0.814,0.145-1.649,0.221-2.481,0.221
	c-1.912,0-3.768-0.375-5.514-1.118c-1.688-0.714-3.202-1.739-4.502-3.042c-1.3-1.303-2.322-2.82-3.035-4.513
	c-0.739-1.75-1.114-3.61-1.114-5.527c0-0.819,0.074-1.643,0.213-2.445c0.026,0.047,0.05,0.096,0.076,0.143l-0.051-0.297
	c-0.009,0.051-0.016,0.103-0.025,0.155c-0.688-1.242-1.055-2.646-1.055-4.075c0-2.245,0.873-4.356,2.456-5.943
	c1.583-1.588,3.69-2.462,5.93-2.462c1.373,0,2.728,0.343,3.933,0.985c-0.05,0.01-0.1,0.02-0.151,0.027l0.299,0.049
	c-0.049-0.027-0.099-0.052-0.148-0.076c0.002-0.001,0.004-0.001,0.007-0.001c0.878-0.168,1.78-0.253,2.682-0.253
	c1.912,0,3.767,0.375,5.513,1.114c1.687,0.717,3.202,1.738,4.501,3.042c1.302,1.306,2.322,2.822,3.036,4.516
	c0.74,1.75,1.114,3.607,1.114,5.524c0,0.865-0.082,1.729-0.235,2.574c-0.027-0.047-0.051-0.097-0.078-0.144l0.05,0.303
	c0.01-0.053,0.018-0.106,0.027-0.159C129.628,468.748,129.996,470.157,129.996,471.591 M116.137,470.375
	c0-0.778-0.63-1.409-1.406-1.409c-0.777,0-1.406,0.63-1.406,1.409s0.629,1.41,1.406,1.41
	C115.507,471.784,116.137,471.154,116.137,470.375 M119.456,466.389c0-0.306-0.139-0.583-0.358-0.764
	c-1.181-0.994-2.705-1.592-4.367-1.592c-1.664,0-3.187,0.599-4.368,1.592c-0.219,0.181-0.358,0.458-0.358,0.764
	c0,0.545,0.44,0.986,0.983,0.986c0.181,0,0.35-0.047,0.496-0.134c0.957-0.547,2.065-0.859,3.246-0.859s2.289,0.312,3.246,0.859
	c0.146,0.086,0.313,0.134,0.496,0.134C119.016,467.375,119.456,466.934,119.456,466.389 M122.688,463.333
	c0-0.21-0.068-0.403-0.184-0.561c-1.685-2.499-4.537-4.144-7.773-4.144s-6.089,1.645-7.774,4.144
	c-0.115,0.156-0.183,0.351-0.183,0.561c0,0.526,0.425,0.953,0.95,0.953c0.262,0,0.501-0.109,0.673-0.282
	c1.643-1.582,3.875-2.555,6.333-2.555s4.69,0.973,6.333,2.555c0.172,0.172,0.411,0.282,0.673,0.282
	C122.262,464.286,122.688,463.859,122.688,463.333"/>
<g id="Shape:_circle_2_">
	<g>
		<circle cx="168" cy="468" r="18"/>
	</g>
</g>
<g id="vector:_close_icon_2_">
	<g>
		<path fill="#FFFFFF" d="M175.102,472.878c-1.133-1.509-2.354-2.966-3.654-4.379c1.301-1.411,2.521-2.868,3.654-4.377
			c0.551-0.763,0.482-1.834-0.203-2.521c-0.688-0.687-1.758-0.755-2.521-0.201c-1.508,1.134-2.965,2.354-4.377,3.652
			c-1.412-1.301-2.868-2.521-4.377-3.652c-0.762-0.553-1.834-0.482-2.521,0.202c-0.686,0.688-0.754,1.759-0.203,2.521
			c1.133,1.509,2.354,2.966,3.654,4.377c-1.301,1.413-2.522,2.87-3.656,4.379c-0.55,0.762-0.482,1.834,0.204,2.521
			c0.687,0.687,1.758,0.755,2.52,0.201c1.509-1.133,2.966-2.354,4.378-3.652c1.414,1.301,2.869,2.521,4.379,3.653
			c0.762,0.553,1.834,0.483,2.521-0.201C175.586,474.713,175.652,473.64,175.102,472.878z"/>
	</g>
</g>
<path fill="#00AFF0" d="M32.975,121.24c0-0.847-0.676-1.534-1.521-1.534l-14.088-0.151L22,114.598
	c0.113-0.214,0.176-0.454,0.176-0.712c0-0.848-0.684-1.531-1.527-1.531c-0.422,0-0.808,0.173-1.084,0.447l-8.115,8.116
	c-0.599,0.597-0.599,1.567,0,2.164l8.115,8.117c0.276,0.274,0.662,0.449,1.084,0.449c0.844,0,1.527-0.688,1.527-1.53
	c0-0.257-0.063-0.5-0.176-0.715l-4.635-4.997l14.088-0.109c0.846,0,1.521-0.69,1.521-1.534c0.019-0.246,0.025-0.53,0.025-0.78
	C33,121.732,32.993,121.486,32.975,121.24z"/>
<g>
	<g>
		<path fill="#00AFF0" d="M22,102c11.046,0,20,8.956,20,20.001c0,11.047-8.954,20-20,20s-20-8.953-20-20
			C2,110.957,10.954,102,22,102 M22,100c-12.131,0-22,9.87-22,22.001s9.869,22,22,22s22-9.869,22-22S34.131,100,22,100L22,100z"/>
	</g>
</g>
<g>
	<path fill="#00AFF0" d="M82.975,121.24c0-0.847-0.676-1.534-1.521-1.534l-14.088-0.151L72,114.598
		c0.113-0.214,0.176-0.454,0.176-0.712c0-0.848-0.684-1.531-1.527-1.531c-0.422,0-0.808,0.173-1.084,0.447l-8.115,8.116
		c-0.599,0.597-0.599,1.567,0,2.164l8.115,8.117c0.276,0.274,0.662,0.449,1.084,0.449c0.844,0,1.527-0.688,1.527-1.53
		c0-0.257-0.063-0.5-0.176-0.715l-4.635-4.997l14.088-0.109c0.846,0,1.521-0.69,1.521-1.534c0.019-0.246,0.025-0.53,0.025-0.78
		C83,121.732,82.993,121.486,82.975,121.24z"/>
	<g>
		<g>
			<path fill="#00AFF0" d="M72,102c11.046,0,20,8.956,20,20.001c0,11.047-8.954,20-20,20s-20-8.953-20-20
				C52,110.957,60.954,102,72,102 M72,100c-12.131,0-22,9.87-22,22.001s9.869,22,22,22s22-9.869,22-22S84.131,100,72,100L72,100z"/>
		</g>
	</g>
	<g opacity="0.15">
		<path fill="#00AFF0" d="M72,143.001c-11.58,0-21-9.42-21-21S60.42,101,72,101s21,9.421,21,21.001S83.58,143.001,72,143.001z"/>
		<path fill="#FFFFFF" d="M72,102c11.046,0,20,8.956,20,20.001c0,11.047-8.954,20-20,20s-20-8.953-20-20
			C52,110.957,60.954,102,72,102 M72,100c-12.131,0-22,9.87-22,22.001s9.869,22,22,22s22-9.869,22-22S84.131,100,72,100L72,100z"/>
	</g>
	<g opacity="0.1">
		<path fill="#00AFF0" d="M72,143.001c-11.58,0-21-9.42-21-21S60.42,101,72,101s21,9.421,21,21.001S83.58,143.001,72,143.001z"/>
		<path fill="#FFFFFF" d="M72,102c11.046,0,20,8.956,20,20.001c0,11.047-8.954,20-20,20s-20-8.953-20-20
			C52,110.957,60.954,102,72,102 M72,100c-12.131,0-22,9.87-22,22.001s9.869,22,22,22s22-9.869,22-22S84.131,100,72,100L72,100z"/>
	</g>
</g>
<g>
	<g>
		<path fill="#00AFF0" d="M122,143.001c-11.58,0-21-9.42-21-21S110.42,101,122,101s21,9.421,21,21.001S133.58,143.001,122,143.001z"
			/>
		<g>
			<path fill="#00AFF0" d="M122,102c11.046,0,20,8.956,20,20.001c0,11.047-8.954,20-20,20s-20-8.953-20-20
				C102,110.957,110.954,102,122,102 M122,100c-12.131,0-22,9.87-22,22.001s9.869,22,22,22s22-9.869,22-22S134.131,100,122,100
				L122,100z"/>
		</g>
	</g>
	<path fill="#FFFFFF" d="M132.975,121.24c0-0.847-0.676-1.534-1.521-1.534l-14.088-0.151l4.635-4.956
		c0.113-0.214,0.176-0.454,0.176-0.712c0-0.848-0.684-1.531-1.527-1.531c-0.422,0-0.808,0.173-1.084,0.447l-8.115,8.116
		c-0.599,0.597-0.599,1.567,0,2.164l8.115,8.117c0.276,0.274,0.662,0.449,1.084,0.449c0.844,0,1.527-0.688,1.527-1.53
		c0-0.257-0.063-0.5-0.176-0.715l-4.635-4.997l14.088-0.109c0.846,0,1.521-0.69,1.521-1.534c0.019-0.246,0.025-0.53,0.025-0.78
		C133,121.732,132.993,121.486,132.975,121.24z"/>
</g>
<path fill="#00AFF0" d="M161.025,121.24c0-0.847,0.676-1.534,1.521-1.534l14.088-0.151L172,114.598
	c-0.113-0.214-0.176-0.454-0.176-0.712c0-0.848,0.684-1.531,1.527-1.531c0.422,0,0.808,0.173,1.084,0.447l8.115,8.116
	c0.599,0.597,0.599,1.567,0,2.164l-8.115,8.117c-0.276,0.274-0.662,0.449-1.084,0.449c-0.844,0-1.527-0.688-1.527-1.53
	c0-0.257,0.063-0.5,0.176-0.715l4.635-4.997l-14.088-0.109c-0.846,0-1.521-0.69-1.521-1.534c-0.019-0.246-0.025-0.53-0.025-0.78
	C161,121.732,161.007,121.486,161.025,121.24z"/>
<g>
	<g>
		<path fill="#00AFF0" d="M172,102c11.046,0,20,8.956,20,20.001c0,11.047-8.954,20-20,20s-20-8.953-20-20
			C152,110.957,160.954,102,172,102 M172,100c-12.131,0-22,9.87-22,22.001s9.869,22,22,22s22-9.869,22-22S184.131,100,172,100
			L172,100z"/>
	</g>
</g>
<g>
	<path fill="#00AFF0" d="M211.025,121.24c0-0.847,0.676-1.534,1.521-1.534l14.088-0.151L222,114.598
		c-0.113-0.214-0.176-0.454-0.176-0.712c0-0.848,0.684-1.531,1.527-1.531c0.422,0,0.808,0.173,1.084,0.447l8.115,8.116
		c0.599,0.597,0.599,1.567,0,2.164l-8.115,8.117c-0.276,0.274-0.662,0.449-1.084,0.449c-0.844,0-1.527-0.688-1.527-1.53
		c0-0.257,0.063-0.5,0.176-0.715l4.635-4.997l-14.088-0.109c-0.846,0-1.521-0.69-1.521-1.534c-0.019-0.246-0.025-0.53-0.025-0.78
		C211,121.732,211.007,121.486,211.025,121.24z"/>
	<g>
		<g>
			<path fill="#00AFF0" d="M222,102c11.046,0,20,8.956,20,20.001c0,11.047-8.954,20-20,20s-20-8.953-20-20
				C202,110.957,210.954,102,222,102 M222,100c-12.131,0-22,9.87-22,22.001s9.869,22,22,22s22-9.869,22-22S234.131,100,222,100
				L222,100z"/>
		</g>
	</g>
	<g opacity="0.15">
		<path fill="#00AFF0" d="M222,143.001c-11.58,0-21-9.42-21-21S210.42,101,222,101s21,9.421,21,21.001S233.58,143.001,222,143.001z"
			/>
		<path fill="#FFFFFF" d="M222,102c11.046,0,20,8.956,20,20.001c0,11.047-8.954,20-20,20s-20-8.953-20-20
			C202,110.957,210.954,102,222,102 M222,100c-12.131,0-22,9.87-22,22.001s9.869,22,22,22s22-9.869,22-22S234.131,100,222,100
			L222,100z"/>
	</g>
	<g opacity="0.1">
		<path fill="#00AFF0" d="M222,143.001c-11.58,0-21-9.42-21-21S210.42,101,222,101s21,9.421,21,21.001S233.58,143.001,222,143.001z"
			/>
		<path fill="#FFFFFF" d="M222,102c11.046,0,20,8.956,20,20.001c0,11.047-8.954,20-20,20s-20-8.953-20-20
			C202,110.957,210.954,102,222,102 M222,100c-12.131,0-22,9.87-22,22.001s9.869,22,22,22s22-9.869,22-22S234.131,100,222,100
			L222,100z"/>
	</g>
</g>
<g>
	<g>
		<path fill="#00AFF0" d="M272,143.001c-11.58,0-21-9.42-21-21S260.42,101,272,101s21,9.421,21,21.001S283.58,143.001,272,143.001z"
			/>
		<g>
			<path fill="#00AFF0" d="M272,102c11.046,0,20,8.956,20,20.001c0,11.047-8.954,20-20,20s-20-8.953-20-20
				C252,110.957,260.954,102,272,102 M272,100c-12.131,0-22,9.87-22,22.001s9.869,22,22,22s22-9.869,22-22S284.131,100,272,100
				L272,100z"/>
		</g>
	</g>
	<path fill="#FFFFFF" d="M261.025,121.24c0-0.847,0.676-1.534,1.521-1.534l14.088-0.151L272,114.598
		c-0.113-0.214-0.176-0.454-0.176-0.712c0-0.848,0.684-1.531,1.527-1.531c0.422,0,0.808,0.173,1.084,0.447l8.113,8.116
		c0.6,0.597,0.6,1.567,0,2.164l-8.113,8.117c-0.276,0.274-0.662,0.449-1.084,0.449c-0.846,0-1.527-0.688-1.527-1.53
		c0-0.257,0.062-0.5,0.176-0.715l4.635-4.997l-14.088-0.109c-0.846,0-1.521-0.69-1.521-1.534c-0.019-0.246-0.023-0.53-0.023-0.78
		C261,121.732,261.007,121.486,261.025,121.24z"/>
</g>
<g>
	<path fill="#00AFF0" d="M313.984,428c-7.726,0-13.985-6.269-13.985-14c0-7.732,6.261-14,13.985-14c7.723,0,13.982,6.268,13.982,14
		C327.969,421.732,321.708,428,313.984,428z"/>
</g>
<g>
	<path fill="#FFFFFF" d="M315.312,419.721l4.429-5.048c0.325-0.372,0.325-0.975-0.001-1.346l-4.426-5.05
		c-0.15-0.17-0.361-0.277-0.593-0.277c-0.46,0-0.834,0.428-0.835,0.952c0,0.159,0.035,0.312,0.099,0.442l1.357,2.698l-6.515,0.479
		c-0.461,0-0.831,0.429-0.831,0.951c-0.01,0.153-0.014,0.31-0.014,0.465c0,0.154,0.004,0.33,0.014,0.484
		c0,0.524,0.37,0.954,0.83,0.954l6.516,0.478l-1.357,2.699c-0.062,0.133-0.099,0.28-0.099,0.442c0.001,0.524,0.375,0.95,0.835,0.952
		C314.953,419.999,315.162,419.893,315.312,419.721z"/>
</g>
<g>
	<path fill="#00AFF0" d="M250,414c0-7.732,6.261-14,13.984-14c7.723,0,13.983,6.268,13.983,14c0,7.731-6.261,14-13.983,14
		C256.261,428,250,421.732,250,414z"/>
</g>
<g>
	<path fill="#FFFFFF" d="M262.654,419.721l-4.428-5.048c-0.324-0.372-0.324-0.975,0.002-1.346l4.426-5.05
		c0.15-0.17,0.361-0.277,0.591-0.277c0.46,0,0.834,0.428,0.835,0.952c0,0.159-0.035,0.312-0.098,0.442l-1.358,2.698l6.515,0.479
		c0.461,0,0.832,0.429,0.832,0.951c0.01,0.153,0.014,0.31,0.014,0.465c0,0.154-0.004,0.33-0.014,0.484
		c0,0.524-0.371,0.954-0.83,0.954l-6.517,0.478l1.358,2.699c0.062,0.133,0.098,0.28,0.098,0.442
		c-0.001,0.524-0.375,0.95-0.835,0.952C263.016,419.999,262.807,419.893,262.654,419.721z"/>
</g>
<path fill="#2EBBF0" d="M290.124,82.506c-0.007,1.196-0.821,2.199-1.922,2.496c-1.042,0.286-2.099,0.539-3.167,0.756
	c-0.532,0.104-1.098-0.138-1.381-0.635l-1.559-2.727c-2.322,0.383-4.707,0.577-7.141,0.563c-2.434-0.015-4.812-0.238-7.131-0.647
	l-1.594,2.707c-0.289,0.494-0.855,0.729-1.388,0.62c-1.065-0.23-2.118-0.495-3.157-0.794c-1.098-0.31-1.898-1.323-1.893-2.518
	l0.083-13.865h-0.001c0.007-1.212,0.842-2.224,1.965-2.507c4.211-1.156,8.643-1.764,13.227-1.736l0,0
	c4.582,0.027,9.008,0.688,13.205,1.894c1.119,0.296,1.941,1.319,1.936,2.53L290.124,82.506z M266.453,78.834
	c2.73,0.655,5.583,1.008,8.513,1.025h0.001c2.93,0.018,5.787-0.301,8.524-0.924c2.319-0.51,4.062-2.571,4.075-5.046
	c0.018-2.872-2.295-5.213-5.168-5.23c-2.871-0.018-5.213,2.297-5.229,5.168c-0.006,1.064,0.308,2.056,0.851,2.883
	c-1,0.088-2.012,0.138-3.035,0.132c-1.022-0.007-2.036-0.068-3.033-0.168c0.554-0.821,0.879-1.809,0.885-2.873
	c0.02-2.872-2.297-5.213-5.168-5.23c-2.872-0.017-5.214,2.297-5.23,5.168C262.423,76.215,264.141,78.295,266.453,78.834z
	 M282.382,71.691c1.196,0.008,2.16,0.983,2.153,2.18c-0.008,1.196-0.983,2.16-2.18,2.153c-1.196-0.007-2.16-0.983-2.153-2.179
	C280.21,72.648,281.186,71.685,282.382,71.691z"/>
<circle fill="#2EBBF0" cx="267.637" cy="74.014" r="2.167"/>
<path fill="#FFFFFF" d="M290.124,32.506c-0.007,1.196-0.821,2.199-1.922,2.496c-1.042,0.286-2.099,0.539-3.167,0.756
	c-0.532,0.104-1.098-0.138-1.381-0.635l-1.559-2.727c-2.322,0.383-4.707,0.577-7.141,0.563c-2.434-0.015-4.812-0.238-7.131-0.647
	l-1.594,2.707c-0.289,0.494-0.855,0.729-1.388,0.62c-1.065-0.23-2.118-0.495-3.157-0.794c-1.098-0.31-1.898-1.323-1.893-2.518
	l0.083-13.865h-0.001c0.007-1.212,0.842-2.224,1.965-2.507c4.211-1.156,8.643-1.764,13.227-1.736l0,0
	c4.582,0.027,9.008,0.688,13.205,1.894c1.119,0.296,1.941,1.319,1.936,2.53L290.124,32.506z M266.453,28.834
	c2.73,0.655,5.583,1.008,8.513,1.025h0.001c2.93,0.018,5.787-0.301,8.524-0.924c2.319-0.51,4.062-2.571,4.075-5.046
	c0.018-2.872-2.295-5.213-5.168-5.23c-2.871-0.018-5.213,2.297-5.229,5.168c-0.006,1.064,0.308,2.056,0.851,2.883
	c-1,0.088-2.012,0.138-3.035,0.132c-1.022-0.007-2.036-0.068-3.033-0.168c0.554-0.821,0.879-1.809,0.885-2.873
	c0.02-2.872-2.297-5.213-5.168-5.23c-2.872-0.017-5.214,2.297-5.23,5.168C262.423,26.215,264.141,28.295,266.453,28.834z
	 M282.382,21.691c1.196,0.008,2.16,0.983,2.153,2.18c-0.008,1.196-0.983,2.16-2.18,2.153c-1.196-0.007-2.16-0.983-2.153-2.179
	C280.21,22.648,281.186,21.685,282.382,21.691z"/>
<circle fill="#FFFFFF" cx="267.637" cy="24.014" r="2.167"/>
<path fill="#00AFF0" d="M30.33,468.29c-0.007,1.196-0.821,2.199-1.922,2.496c-1.042,0.286-2.098,0.539-3.167,0.756
	c-0.532,0.104-1.097-0.138-1.38-0.635l-1.56-2.729c-2.321,0.385-4.706,0.577-7.139,0.563c-2.432-0.017-4.814-0.238-7.131-0.647
	l-1.592,2.707c-0.29,0.494-0.857,0.729-1.388,0.62c-1.066-0.229-2.119-0.495-3.157-0.794c-1.098-0.31-1.9-1.323-1.893-2.518
	l0.083-13.865H0.082c0.007-1.212,0.842-2.224,1.965-2.507c4.211-1.156,8.642-1.766,13.226-1.736l0,0
	c4.583,0.027,9.007,0.688,13.205,1.896c1.119,0.296,1.942,1.317,1.935,2.528L30.33,468.29z M6.659,464.617
	c2.731,0.655,5.583,1.008,8.513,1.023h0.001c2.929,0.02,5.787-0.301,8.524-0.924c2.319-0.51,4.062-2.571,4.076-5.046
	c0.017-2.872-2.296-5.213-5.168-5.229c-2.871-0.02-5.213,2.297-5.23,5.168c-0.006,1.062,0.307,2.056,0.851,2.883
	c-1,0.088-2.012,0.138-3.036,0.132c-1.023-0.007-2.036-0.068-3.034-0.168c0.554-0.821,0.879-1.809,0.885-2.873
	c0.018-2.872-2.297-5.213-5.168-5.23c-2.872-0.017-5.214,2.299-5.231,5.168C2.629,461.998,4.346,464.079,6.659,464.617z
	 M22.588,457.475c1.196,0.01,2.16,0.983,2.153,2.182c-0.007,1.194-0.983,2.16-2.179,2.151c-1.197-0.007-2.161-0.981-2.154-2.179
	C20.416,458.432,21.392,457.468,22.588,457.475z"/>
<circle fill="#00AFF0" cx="7.843" cy="459.797" r="2.167"/>
<g>
	<path fill="#B1E7FA" d="M310.538,117.037c0,0.198-0.072,0.369-0.214,0.507c-0.146,0.141-0.357,0.211-0.633,0.211h-3.938
		c-0.307,0-0.552-0.081-0.729-0.246c-0.18-0.163-0.27-0.359-0.27-0.582c0-0.139,0.051-0.314,0.157-0.531
		c0.102-0.209,0.217-0.378,0.342-0.503c0.477-0.458,0.908-0.856,1.292-1.184c0.393-0.334,0.665-0.549,0.835-0.657
		c0.28-0.185,0.519-0.373,0.705-0.56c0.184-0.182,0.323-0.372,0.418-0.562c0.092-0.184,0.139-0.368,0.139-0.542
		c0-0.188-0.047-0.352-0.143-0.5c-0.095-0.147-0.222-0.258-0.386-0.34c-0.167-0.083-0.346-0.124-0.543-0.124
		c-0.418,0-0.738,0.167-0.979,0.511c-0.012,0.015-0.054,0.085-0.165,0.378c-0.088,0.236-0.191,0.422-0.308,0.554
		c-0.134,0.153-0.329,0.229-0.576,0.229c-0.218,0-0.402-0.069-0.548-0.204c-0.146-0.135-0.219-0.318-0.219-0.544
		c0-0.245,0.06-0.504,0.176-0.769c0.119-0.264,0.296-0.507,0.528-0.721c0.23-0.215,0.528-0.39,0.884-0.521
		c0.353-0.129,0.77-0.196,1.236-0.196c0.564,0,1.056,0.084,1.457,0.251c0.269,0.113,0.505,0.271,0.704,0.468
		c0.202,0.198,0.36,0.43,0.473,0.688c0.111,0.26,0.168,0.531,0.168,0.809c0,0.436-0.118,0.837-0.353,1.194
		c-0.225,0.346-0.46,0.623-0.696,0.822c-0.23,0.193-0.608,0.489-1.153,0.903c-0.526,0.398-0.894,0.712-1.083,0.931
		c-0.031,0.032-0.062,0.065-0.091,0.1h2.507c0.31,0,0.555,0.064,0.727,0.188C310.445,116.63,310.538,116.811,310.538,117.037z
		 M305.104,104.347c0.604,0,1.096-0.486,1.096-1.087v-2.173c0-0.6-0.491-1.086-1.096-1.086c-0.604,0-1.093,0.487-1.093,1.086v2.173
		C304.01,103.861,304.499,104.347,305.104,104.347z M316.767,104.347c0.604,0,1.096-0.486,1.096-1.087v-2.173
		c0-0.6-0.491-1.086-1.096-1.086c-0.604,0-1.093,0.487-1.093,1.086v2.173C315.674,103.861,316.163,104.347,316.767,104.347z
		 M321.87,104.347v8.71c0,1.039-0.732,1.91-1.712,2.125c-1.088,0.258-2.225,0.394-3.393,0.394c-0.135,0-0.271-0.002-0.403-0.005
		c-0.402,0-0.729,0.324-0.729,0.724c0.027,0.355,0.041,0.73,0.041,1.092c0,1.318-0.177,2.596-0.509,3.81
		c-0.264,0.905-1.105,1.571-2.101,1.571c-0.705,0.035-1.415,0.053-2.131,0.053c-3.163,0-6.239-0.355-9.197-1.028
		c-0.99-0.208-1.736-1.095-1.736-2.142v-15.304c0-1.2,0.979-2.173,2.188-2.173h0.363v1.086c0,1.401,1.146,2.536,2.553,2.536
		c1.408,0,2.552-1.135,2.552-2.536v-1.086h6.562v1.086c0,1.401,1.145,2.536,2.551,2.536c1.408,0,2.553-1.135,2.553-2.536v-1.086
		h0.363C320.891,102.174,321.87,103.147,321.87,104.347z M319.683,109.418c0-0.8-0.651-1.449-1.458-1.449h-14.58
		c-0.805,0-1.456,0.648-1.456,1.449v8.738c0,0.662,0.45,1.218,1.06,1.392c2.48,0.518,5.052,0.791,7.688,0.791
		c0.662,0,1.328-0.016,1.987-0.049c0.529,0,0.972-0.374,1.071-0.871c0.102-0.538,0.167-1.086,0.2-1.646
		c-0.395-0.005-0.752-0.078-1.067-0.221c-0.327-0.146-0.602-0.334-0.816-0.557c-0.212-0.221-0.375-0.454-0.483-0.693
		c-0.112-0.246-0.167-0.447-0.167-0.615c0-0.228,0.076-0.416,0.228-0.557c0.149-0.141,0.336-0.212,0.557-0.212
		c0.116,0,0.23,0.035,0.34,0.103c0.109,0.07,0.187,0.158,0.223,0.263c0.164,0.435,0.341,0.761,0.525,0.97
		c0.16,0.181,0.382,0.271,0.67,0.281c-0.005-0.127-0.003-0.256-0.011-0.382c-0.01-0.073-0.015-0.146-0.015-0.221
		c0-0.666,0.307-1.15,0.782-1.45c-0.171-0.118-0.384-0.179-0.653-0.179c-0.062,0-0.158,0.008-0.293,0.021
		c-0.145,0.014-0.236,0.02-0.278,0.02c-0.218,0-0.389-0.057-0.514-0.17c-0.127-0.117-0.19-0.275-0.19-0.475
		c0-0.198,0.077-0.362,0.228-0.484c0.145-0.118,0.352-0.176,0.614-0.176h0.204c0.271,0,0.501-0.077,0.697-0.236
		c0.188-0.15,0.277-0.366,0.277-0.656c0-0.218-0.074-0.4-0.225-0.558c-0.15-0.155-0.351-0.23-0.608-0.23
		c-0.182,0-0.331,0.024-0.441,0.072c-0.109,0.047-0.197,0.109-0.261,0.183c-0.065,0.082-0.134,0.192-0.194,0.325
		c-0.067,0.144-0.128,0.278-0.186,0.406c-0.048,0.101-0.131,0.177-0.246,0.23c-0.233,0.108-0.565,0.108-0.811-0.127
		c-0.137-0.131-0.207-0.308-0.207-0.521c0-0.192,0.058-0.396,0.172-0.603c0.112-0.202,0.275-0.396,0.485-0.575
		c0.212-0.181,0.476-0.327,0.788-0.435c0.579-0.202,1.361-0.22,1.956-0.025c0.276,0.091,0.522,0.227,0.729,0.4
		c0.21,0.176,0.37,0.384,0.478,0.617c0.105,0.232,0.159,0.486,0.159,0.753c0,0.352-0.079,0.658-0.233,0.913
		c-0.124,0.2-0.291,0.399-0.499,0.591c0.193,0.121,0.369,0.254,0.514,0.399c0.051,0.052,0.09,0.108,0.135,0.163
		c0.071,0.001,0.144,0.003,0.214,0.003c0.677,0,1.347-0.051,1.998-0.149c0.519-0.087,0.917-0.541,0.917-1.08v-3.481H319.683z"/>
</g>
<path fill="#B1E7FA" d="M367.91,109.803c0,3.29-1.958,6.122-4.771,7.396c-0.1,0.037-0.216,0.057-0.33,0.057
	c-0.513,0-0.93-0.416-0.93-0.93c0-0.128,0.026-0.25,0.074-0.362c0.137-0.324,0.211-0.681,0.211-1.054
	c0-0.647-0.229-1.242-0.607-1.708c-0.386-0.467-0.61-1.062-0.611-1.715c0-0.713,0.272-1.359,0.724-1.842
	c0.307-0.306,0.496-0.729,0.496-1.195c0-0.671-0.392-1.251-0.959-1.524c-0.505-0.226-1.07-0.351-1.658-0.351
	c-0.49,0-0.955,0.081-1.389,0.24c-0.095,0.032-0.197,0.05-0.302,0.05c-0.515,0-0.931-0.416-0.931-0.93
	c0-0.372,0.223-0.687,0.537-0.834c0.285-0.159,0.479-0.464,0.479-0.813c0-0.413-0.268-0.762-0.64-0.883
	c-0.3-0.069-0.522-0.338-0.522-0.659c0-0.297,0.19-0.552,0.458-0.643c0.805-0.268,1.667-0.413,2.562-0.413
	c2.525,0,4.783,1.155,6.271,2.966c0.088,0.114,0.146,0.261,0.146,0.417c0,0.374-0.302,0.676-0.676,0.676
	c-0.038,0-0.077-0.003-0.114-0.009c-0.183-0.025-0.369-0.041-0.56-0.041c-0.271,0-0.536,0.026-0.792,0.078
	c-0.316,0.057-0.562,0.334-0.562,0.667c0,0.374,0.305,0.676,0.677,0.676c0.053,0,0.104-0.006,0.151-0.018
	c0.332-0.087,0.673-0.132,1.032-0.132c0.471,0,0.922,0.082,1.343,0.23c0.584,0.211,1.02,0.734,1.099,1.37
	C367.878,108.974,367.91,109.385,367.91,109.803z M359.8,100c-5.413,0-9.8,4.389-9.8,9.803c0,5.414,4.387,9.803,9.8,9.803
	c5.412,0,9.799-4.389,9.799-9.803C369.599,104.39,365.212,100,359.8,100z M357.75,113.701c-0.923,0.734-2.086,1.173-3.357,1.173
	c-0.141,0-0.277-0.005-0.418-0.016c-0.024,0-0.051,0-0.076-0.003c-0.328-0.024-0.62-0.202-0.788-0.464
	c-0.335-0.489-0.62-1.018-0.845-1.576c-0.054-0.123-0.082-0.265-0.082-0.408c0-0.222,0.073-0.427,0.194-0.594
	c0.384-0.515,0.695-1.085,0.921-1.697c0.422-1.173,1.548-2.034,2.866-2.034c0.008,0,0.014,0,0.021,0
	c0.374,0,0.678,0.303,0.678,0.676c0,0.081-0.014,0.163-0.038,0.234c-0.044,0.15-0.067,0.31-0.067,0.474
	c0,0.604,0.319,1.134,0.796,1.432c0.509,0.292,0.853,0.84,0.853,1.467C358.405,112.909,358.149,113.392,357.75,113.701z
	 M374,113.465c0-0.56-0.454-1.014-1.013-1.014c-0.475,0-0.87,0.333-0.982,0.769c-0.564,2.032-1.646,3.95-3.245,5.548
	c-1.586,1.586-3.49,2.665-5.505,3.234c-0.432,0.116-0.752,0.511-0.752,0.979c0,0.56,0.454,1.014,1.014,1.014
	c0.016,0,0.036,0.005,0.05,0.005c2.592-0.23,5.122-1.336,7.104-3.321c1.979-1.979,3.085-4.503,3.318-7.089
	C373.994,113.551,374,113.506,374,113.465z"/>
<g>
	<path fill="#B1E7FA" d="M417.548,113.479l-7.372-12.73c-0.277-0.48-0.783-0.747-1.302-0.748c-0.519,0-1.023,0.268-1.301,0.748
		l-7.372,12.73c-0.415,0.717-0.168,1.632,0.55,2.046c0.082,0.047,0.167,0.085,0.255,0.115c2.499,0.723,5.136,1.111,7.868,1.111
		c2.733,0,5.371-0.388,7.869-1.111c0.088-0.03,0.174-0.068,0.255-0.115C417.718,115.111,417.963,114.195,417.548,113.479z
		 M408.875,114.975c-0.83,0-1.503-0.67-1.503-1.498c0-0.827,0.673-1.498,1.503-1.498s1.503,0.671,1.503,1.498
		C410.377,114.305,409.705,114.975,408.875,114.975z M409.805,110.354c-0.146,0.37-0.506,0.628-0.93,0.628
		c-0.423,0-0.783-0.258-0.93-0.628c-0.456-1.181-0.706-2.464-0.706-3.806c0-0.604,0.051-1.195,0.146-1.771
		c0.104-0.728,0.73-1.282,1.488-1.282s1.385,0.555,1.488,1.282c0.098,0.576,0.146,1.168,0.146,1.771
		C410.51,107.889,410.261,109.172,409.805,110.354z"/>
</g>
<path fill="#FFFFFF" d="M10.83,405.415c0,0.547-0.404,0.999-0.931,1.073c-1.032,0.14-2.08,0.229-3.139,0.273
	c-0.043,1.059-0.135,2.106-0.273,3.139c-0.073,0.525-0.525,0.933-1.073,0.932c-0.546,0.001-0.998-0.404-1.072-0.932
	c-0.139-1.031-0.23-2.08-0.273-3.139c-1.059-0.044-2.107-0.136-3.138-0.273C0.404,406.413,0,405.961,0,405.416
	c0-0.546,0.405-0.999,0.93-1.073c1.031-0.139,2.08-0.231,3.138-0.274c0.044-1.059,0.135-2.105,0.273-3.137
	c0.075-0.524,0.526-0.931,1.072-0.931c0.547,0,1,0.405,1.073,0.931c0.139,1.03,0.23,2.078,0.273,3.137
	c1.059,0.043,2.107,0.136,3.139,0.273C10.426,404.417,10.83,404.869,10.83,405.415z"/>
<path fill="#B1E7FA" d="M61.824,400.001c-6.52,0-11.824,5.304-11.824,11.822c0,6.521,5.304,11.825,11.824,11.825
	s11.824-5.307,11.824-11.825C73.647,405.305,68.344,400.001,61.824,400.001z M61.824,422.391c-5.827,0-10.566-4.738-10.566-10.565
	c0-5.825,4.74-10.565,10.566-10.565c5.826,0,10.567,4.74,10.567,10.565S67.65,422.391,61.824,422.391z M61.785,403.027
	c-4.795,0-8.682,3.888-8.682,8.683s3.887,8.683,8.682,8.683c4.794,0,8.683-3.888,8.683-8.683S66.579,403.027,61.785,403.027z
	 M61.881,417.462c-3.289,0-4.76-1.616-4.76-2.828c0-0.622,0.459-1.058,1.093-1.058c1.405,0,1.042,2.021,3.667,2.021
	c1.342,0,2.086-0.73,2.086-1.479c0-0.45-0.222-0.947-1.107-1.166l-2.925-0.729c-2.354-0.592-2.782-1.865-2.782-3.062
	c0-2.486,2.341-3.419,4.537-3.419c2.024,0,4.412,1.117,4.412,2.607c0,0.641-0.553,1.012-1.186,1.012
	c-1.202,0-0.979-1.661-3.397-1.661c-1.202,0-1.867,0.543-1.867,1.319c0,0.777,0.949,1.024,1.771,1.213l2.165,0.479
	c2.373,0.529,2.973,1.912,2.973,3.216C66.56,415.953,65.01,417.462,61.881,417.462z"/>
<g>
	<path fill="#B1E7FA" d="M173.933,413.117l-1.938,0.087c0.177,0.218,0.36,0.453,0.508,0.69c0.726,1.096,1.181,2.389,1.243,3.793
		c0.186,4.135-3.024,7.646-7.16,7.831c-2.022,0.092-3.887-0.634-5.291-1.88c-6.274-0.277-11.294-5.473-11.294-11.813
		c0-6.521,5.306-11.824,11.827-11.824c6.041,0,11.035,4.554,11.737,10.408l-1.31-0.291c-0.817-5.019-5.182-8.86-10.428-8.86
		c-5.828,0-10.568,4.74-10.568,10.567s4.74,10.566,10.568,10.566c0.373,0,0.742-0.02,1.106-0.058
		c0.856,0.547,1.878,0.844,2.969,0.796c2.833-0.125,5.037-2.535,4.908-5.366c-0.048-1.076-0.433-2.078-1.04-2.883
		c-0.066-0.082-0.133-0.161-0.204-0.238l-0.984,1.894c-0.177,0.336-0.59,0.468-0.928,0.292c-0.288-0.148-0.427-0.473-0.353-0.773
		l1.017-4.623c0.109-0.494,0.6-0.808,1.094-0.697l4.599,1.019c0.315,0.052,0.562,0.315,0.577,0.647
		C174.605,412.779,174.313,413.1,173.933,413.117z M161.693,405.746c-2.198,0-4.539,0.934-4.539,3.419
		c0,1.196,0.428,2.472,2.783,3.06l2.924,0.73c0.886,0.22,1.109,0.717,1.109,1.167c0,0.746-0.745,1.478-2.088,1.478
		c-2.623,0-2.262-2.021-3.666-2.021c-0.634,0-1.092,0.438-1.092,1.059c0,1.213,1.47,2.828,4.758,2.828
		c2.237,0,3.662-0.771,4.296-1.947l-0.06,0.268c-0.2,0.852,0.201,1.722,0.979,2.123c0.18,0.093,0.375,0.154,0.577,0.188
		c-1.548,1.428-3.616,2.303-5.888,2.303c-4.797,0-8.685-3.889-8.685-8.685c0-4.795,3.888-8.685,8.685-8.685
		c4.092,0,7.521,2.832,8.438,6.644l-0.55-0.122c-0.151-0.033-0.307-0.051-0.462-0.051c-0.994,0-1.867,0.705-2.08,1.675l-0.576,2.617
		c-0.044-1.26-0.685-2.562-2.968-3.069l-2.167-0.479c-0.821-0.188-1.77-0.435-1.77-1.214c0-0.776,0.666-1.319,1.868-1.319
		c2.418,0,2.196,1.661,3.398,1.661c0.633,0,1.187-0.371,1.187-1.012C166.105,406.866,163.717,405.746,161.693,405.746z
		 M169.421,419.165c-0.17,0.542-0.455,1.046-0.849,1.478c-0.71,0.777-1.677,1.229-2.724,1.276c-0.059,0.003-0.117,0.004-0.175,0.004
		c-0.198,0-0.394-0.016-0.586-0.045C166.749,421.336,168.231,420.395,169.421,419.165z"/>
</g>
<g>
	<path fill="#B1E7FA" d="M121.938,416.852l-9.216-15.916c-0.348-0.6-0.979-0.934-1.627-0.935c-0.648,0-1.279,0.334-1.627,0.935
		l-9.215,15.916c-0.519,0.896-0.211,2.041,0.687,2.559c0.103,0.061,0.209,0.105,0.319,0.145c3.124,0.902,6.421,1.389,9.837,1.389
		s6.713-0.484,9.836-1.389c0.11-0.037,0.217-0.084,0.319-0.145C122.149,418.891,122.457,417.747,121.938,416.852z M111.095,418.721
		c-1.038,0-1.879-0.838-1.879-1.871c0-1.035,0.841-1.873,1.879-1.873c1.038,0,1.878,0.838,1.878,1.873
		C112.973,417.884,112.132,418.721,111.095,418.721z M112.257,412.943c-0.183,0.464-0.633,0.785-1.163,0.785
		c-0.529,0-0.979-0.321-1.163-0.785c-0.57-1.478-0.882-3.08-0.882-4.758c0-0.754,0.064-1.494,0.185-2.213
		c0.129-0.91,0.913-1.604,1.86-1.604c0.948,0,1.731,0.694,1.86,1.604c0.122,0.719,0.185,1.459,0.185,2.213
		C113.14,409.863,112.827,411.467,112.257,412.943z"/>
</g>
<path fill="#B1E7FA" d="M362.23,400v2.357l-6.115,5.086L350,402.389V400l6.115,5.146L362.23,400z"/>
<path fill="#B1E7FA" d="M412.23,407.445v-2.359L406.115,400L400,405.057v2.389l6.115-5.146L412.23,407.445z"/>
<path fill="#00ADF2" d="M217.4,400c-9.594,0-17.4,7.805-17.4,17.398c0,9.596,7.806,17.4,17.4,17.4c9.595,0,17.4-7.806,17.4-17.4
	C234.8,407.807,226.995,400,217.4,400z M217.4,432.949c-8.575,0-15.55-6.976-15.55-15.551c0-8.573,6.975-15.549,15.55-15.549
	s15.551,6.977,15.551,15.549C232.951,425.975,225.975,432.949,217.4,432.949z M217.343,404.454c-7.058,0-12.777,5.721-12.777,12.776
	c0,7.058,5.719,12.777,12.777,12.777c7.055,0,12.777-5.721,12.777-12.777C230.12,410.175,224.398,404.454,217.343,404.454z
	 M217.485,425.696c-4.839,0-7.005-2.38-7.005-4.162c0-0.915,0.677-1.556,1.608-1.556c2.067,0,1.534,2.976,5.396,2.976
	c1.975,0,3.07-1.076,3.07-2.174c0-0.663-0.327-1.394-1.63-1.716l-4.304-1.075c-3.464-0.868-4.094-2.743-4.094-4.503
	c0-3.658,3.445-5.03,6.677-5.03c2.979,0,6.492,1.647,6.492,3.84c0,0.94-0.814,1.486-1.746,1.486c-1.768,0-1.44-2.445-5-2.445
	c-1.769,0-2.748,0.8-2.748,1.942c0,1.146,1.397,1.509,2.606,1.785l3.186,0.707c3.493,0.778,4.376,2.813,4.376,4.731
	C224.37,423.476,222.089,425.696,217.485,425.696z"/>
<g>
	<path fill="#00ADF2" d="M214.455,473.37c0,0.271-0.099,0.506-0.294,0.695c-0.197,0.191-0.49,0.287-0.868,0.287h-5.4
		c-0.42,0-0.757-0.109-1-0.337c-0.244-0.223-0.368-0.49-0.368-0.798c0-0.189,0.07-0.431,0.216-0.729
		c0.139-0.288,0.298-0.521,0.469-0.69c0.652-0.628,1.246-1.174,1.772-1.624c0.536-0.459,0.912-0.753,1.146-0.899
		c0.384-0.253,0.709-0.513,0.967-0.77c0.25-0.25,0.443-0.511,0.574-0.771c0.126-0.252,0.19-0.504,0.19-0.744
		c0-0.258-0.064-0.482-0.196-0.687c-0.131-0.201-0.304-0.354-0.53-0.466c-0.23-0.113-0.474-0.169-0.746-0.169
		c-0.574,0-1.013,0.229-1.342,0.701c-0.016,0.02-0.074,0.117-0.226,0.519c-0.122,0.324-0.265,0.579-0.423,0.761
		c-0.184,0.21-0.451,0.312-0.791,0.312c-0.298,0-0.552-0.095-0.752-0.28c-0.199-0.185-0.301-0.437-0.301-0.745
		c0-0.337,0.083-0.69,0.241-1.056c0.164-0.36,0.406-0.694,0.725-0.989s0.727-0.533,1.212-0.715c0.484-0.177,1.056-0.269,1.699-0.269
		c0.773,0,1.445,0.115,1.998,0.344c0.366,0.156,0.69,0.372,0.966,0.642c0.276,0.271,0.494,0.592,0.646,0.944
		c0.155,0.356,0.231,0.729,0.231,1.109c0,0.598-0.162,1.146-0.481,1.638c-0.309,0.474-0.631,0.854-0.958,1.127
		c-0.316,0.268-0.833,0.67-1.581,1.239c-0.722,0.546-1.223,0.977-1.486,1.276c-0.042,0.044-0.083,0.09-0.125,0.138h3.438
		c0.425,0,0.761,0.087,0.997,0.258C214.328,472.812,214.455,473.06,214.455,473.37z M207,455.963c0.827,0,1.5-0.667,1.5-1.491
		v-2.979c0-0.822-0.673-1.49-1.5-1.49c-0.829,0-1.5,0.668-1.5,1.49v2.979C205.501,455.296,206.171,455.963,207,455.963z
		 M223,455.963c0.827,0,1.5-0.667,1.5-1.491v-2.979c0-0.822-0.673-1.49-1.5-1.49c-0.829,0-1.5,0.668-1.5,1.49v2.979
		C221.5,455.296,222.171,455.963,223,455.963z M230,455.963v11.948c0,1.425-1.005,2.62-2.35,2.915
		c-1.492,0.354-3.048,0.541-4.65,0.541c-0.186,0-0.371-0.003-0.555-0.007c-0.552,0-1,0.442-1,0.993
		c0.037,0.485,0.056,1.002,0.056,1.496c0,1.811-0.243,3.562-0.698,5.228c-0.362,1.242-1.516,2.154-2.882,2.154
		c-0.967,0.048-1.94,0.071-2.92,0.071c-4.339,0-8.561-0.486-12.618-1.411c-1.358-0.283-2.381-1.502-2.381-2.938L200,455.963
		c0-1.646,1.344-2.979,3-2.979h0.5v1.488c0,1.921,1.569,3.479,3.5,3.479c1.932,0,3.5-1.559,3.5-3.479v-1.488h9.001v1.488
		c0,1.921,1.567,3.479,3.5,3.479s3.5-1.559,3.5-3.479v-1.488h0.5C228.656,452.982,230,454.317,230,455.963z M227,462.919
		c0-1.098-0.896-1.987-2-1.987h-20c-1.104,0-2,0.891-2,1.987v11.986c0,0.907,0.62,1.671,1.454,1.91
		c3.403,0.71,6.931,1.084,10.547,1.084c0.907,0,1.821-0.022,2.725-0.067c0.726,0,1.333-0.513,1.47-1.195
		c0.139-0.735,0.229-1.488,0.274-2.257c-0.539-0.007-1.031-0.105-1.464-0.303c-0.449-0.201-0.826-0.459-1.119-0.764
		c-0.291-0.305-0.515-0.623-0.666-0.951c-0.154-0.337-0.23-0.613-0.23-0.846c0-0.312,0.104-0.568,0.313-0.764
		c0.205-0.193,0.461-0.291,0.761-0.291c0.162,0,0.318,0.048,0.466,0.143c0.152,0.096,0.256,0.217,0.306,0.359
		c0.224,0.596,0.467,1.044,0.721,1.33c0.219,0.248,0.524,0.371,0.919,0.385c-0.007-0.174-0.004-0.351-0.015-0.522
		c-0.011-0.102-0.018-0.2-0.018-0.304c0-0.913,0.418-1.577,1.072-1.988c-0.234-0.162-0.526-0.245-0.896-0.245
		c-0.086,0-0.22,0.011-0.402,0.027c-0.199,0.019-0.326,0.025-0.384,0.025c-0.297,0-0.531-0.078-0.702-0.231
		c-0.175-0.16-0.264-0.378-0.264-0.651c0-0.271,0.105-0.497,0.313-0.665c0.196-0.161,0.479-0.241,0.843-0.241h0.279
		c0.375,0,0.687-0.104,0.956-0.324c0.258-0.205,0.383-0.501,0.383-0.898c0-0.3-0.102-0.549-0.308-0.768
		c-0.206-0.212-0.479-0.314-0.834-0.314c-0.25,0-0.454,0.034-0.608,0.099c-0.15,0.064-0.271,0.149-0.355,0.25
		c-0.092,0.113-0.184,0.265-0.269,0.445c-0.092,0.197-0.176,0.382-0.252,0.557c-0.066,0.141-0.18,0.243-0.337,0.316
		c-0.322,0.146-0.778,0.146-1.112-0.174c-0.188-0.182-0.284-0.422-0.284-0.715c0-0.266,0.08-0.542,0.236-0.827
		c0.153-0.277,0.377-0.542,0.666-0.789c0.291-0.248,0.653-0.449,1.081-0.599c0.795-0.275,1.869-0.301,2.682-0.033
		c0.381,0.125,0.72,0.311,1.003,0.549c0.288,0.242,0.507,0.524,0.652,0.847c0.147,0.319,0.221,0.667,0.221,1.033
		c0,0.48-0.109,0.903-0.322,1.252c-0.169,0.274-0.398,0.548-0.685,0.811c0.268,0.166,0.506,0.351,0.705,0.55
		c0.07,0.069,0.123,0.147,0.186,0.224c0.097,0.002,0.194,0.005,0.292,0.005c0.928,0,1.846-0.07,2.742-0.205
		c0.708-0.119,1.258-0.742,1.258-1.479V462.919L227,462.919z"/>
</g>
<path fill="#FFFFFF" d="M276.248,472.053c-0.206-0.946-0.928-1.747-1.928-2.016l-4.365-1.16c-1.428-0.381-2.895,0.465-3.273,1.89
	l-0.101,0.348c-1.983-0.623-3.851-1.721-5.422-3.288c-1.569-1.573-2.666-3.438-3.289-5.423l0.346-0.101
	c1.425-0.383,2.271-1.848,1.89-3.273l-1.16-4.366c-0.268-1-1.066-1.721-2.016-1.926c-0.771-0.178-1.6-0.174-2.419,0.045
	c-0.854,0.229-1.6,0.666-2.192,1.242c-0.463,0.49-0.728,1.143-0.725,1.834v0.062c-0.025,5.5,2.057,11.006,6.246,15.207l0.014,0.016
	c4.201,4.188,9.709,6.271,15.209,6.246h0.062c0.689,0.004,1.342-0.26,1.833-0.725c0.577-0.592,1.015-1.336,1.243-2.191
	C276.423,473.652,276.426,472.826,276.248,472.053z"/>
<path fill="#00AFF0" d="M326.248,472.052c-0.206-0.946-0.927-1.747-1.927-2.016l-4.366-1.16c-1.427-0.381-2.895,0.465-3.273,1.89
	l-0.101,0.348c-1.983-0.623-3.851-1.721-5.422-3.288c-1.569-1.573-2.666-3.438-3.289-5.423l0.346-0.101
	c1.425-0.383,2.271-1.848,1.89-3.273l-1.159-4.366c-0.269-1-1.067-1.721-2.017-1.926c-0.771-0.178-1.6-0.174-2.419,0.045
	c-0.854,0.229-1.6,0.666-2.192,1.242c-0.462,0.49-0.728,1.143-0.725,1.834v0.062c-0.024,5.5,2.057,11.006,6.246,15.207l0.014,0.015
	c4.201,4.188,9.709,6.271,15.209,6.247h0.062c0.69,0.003,1.342-0.26,1.833-0.725c0.577-0.592,1.015-1.336,1.243-2.191
	C326.423,473.651,326.426,472.825,326.248,472.052z"/>
<path fill="#00AFF0" d="M358.999,452.608c-6.521,0-11.824,5.304-11.824,11.821c0,6.521,5.304,11.825,11.824,11.825
	c6.52,0,11.824-5.306,11.824-11.825C370.822,457.912,365.519,452.608,358.999,452.608z M358.999,474.998
	c-5.827,0-10.566-4.739-10.566-10.567c0-5.823,4.74-10.563,10.566-10.563s10.566,4.74,10.566,10.563
	C369.565,470.259,364.825,474.998,358.999,474.998z M358.96,455.635c-4.795,0-8.683,3.889-8.683,8.684s3.888,8.684,8.683,8.684
	c4.794,0,8.683-3.889,8.683-8.684S363.754,455.635,358.96,455.635z M359.056,470.069c-3.289,0-4.76-1.617-4.76-2.828
	c0-0.623,0.459-1.06,1.093-1.06c1.405,0,1.042,2.022,3.667,2.022c1.343,0,2.086-0.731,2.086-1.479c0-0.45-0.222-0.946-1.105-1.166
	l-2.926-0.729c-2.354-0.59-2.781-1.864-2.781-3.062c0-2.485,2.341-3.418,4.537-3.418c2.022,0,4.411,1.118,4.411,2.608
	c0,0.64-0.554,1.01-1.187,1.01c-1.202,0-0.979-1.661-3.396-1.661c-1.201,0-1.866,0.543-1.866,1.32s0.948,1.025,1.771,1.213
	l2.165,0.48c2.373,0.528,2.974,1.912,2.974,3.216C363.734,468.562,362.185,470.069,359.056,470.069z"/>
<g transform="translate(0.000000,128.000000) scale(0.100000,-0.100000)">
	<path fill="#FFFFFF" d="M3482.968-2981.23c-5.566-4.072-7.891-9.326-7.891-16.777c0-6.27,0.518-6.777,27.119-25.928
		c35.361-25.42,71.816-48.623,80.781-51.016c5.205-1.514,8.633-1.514,13.838-0.156c9.15,2.715,43.447,24.053,78.994,49.297
		l29.092,20.859v6.777c0,7.949-4.316,15.586-10.244,18.135c-2.871,1.348-36.621,1.855-106.104,1.855
		C3494.833-2978.183,3486.386-2978.515,3482.968-2981.23z"/>
	<path fill="#FFFFFF" d="M3475.078-3088.164c0-58.457,0.352-60.83,7.891-66.592c3.418-2.705,11.865-3.047,105.586-3.047
		c71.279,0,103.057,0.508,106.289,1.855c9.883,4.248,10.234,7.471,9.688,68.135l-0.527,55.576l-14.355-10.508
		c-41.484-30-90.322-59.15-99.307-59.15c-10.059,0-57.803,28.652-109.336,65.752l-5.928,4.072V-3088.164L3475.078-3088.164z"/>
</g>
<g transform="translate(0.000000,128.000000) scale(0.100000,-0.100000)">
	<path fill="#00AFF0" d="M3970.801-2981.229c-5.566-4.072-7.891-9.326-7.891-16.777c0-6.27,0.518-6.777,27.119-25.928
		c35.361-25.42,71.816-48.623,80.781-51.016c5.205-1.514,8.633-1.514,13.838-0.156c9.15,2.715,43.447,24.053,78.994,49.297
		l29.092,20.859v6.777c0,7.949-4.316,15.586-10.244,18.135c-2.871,1.348-36.621,1.855-106.103,1.855
		C3982.666-2978.182,3974.219-2978.514,3970.801-2981.229z"/>
	<path fill="#00AFF0" d="M3962.91-3088.163c0-58.457,0.352-60.83,7.891-66.592c3.418-2.705,11.865-3.047,105.586-3.047
		c71.279,0,103.056,0.508,106.289,1.855c9.883,4.248,10.234,7.471,9.688,68.135l-0.527,55.576l-14.355-10.508
		c-41.484-30-90.322-59.15-99.306-59.15c-10.059,0-57.803,28.652-109.336,65.752l-5.928,4.072V-3088.163L3962.91-3088.163z"/>
</g>
<g transform="translate(0.000000,256.000000) scale(0.100000,-0.100000)">
	<path fill="#FFFFFF" d="M2556.24-2301.053c-6.084-1.816-15.273-11.396-17.08-17.861c-0.908-3.623-1.299-30.537-1.045-85.908
		l0.391-80.605l3.623-5.439c1.943-2.979,5.947-6.982,8.926-8.926l5.439-3.623h83.574h83.584l5.439,3.623
		c2.979,1.943,6.982,5.947,8.926,8.926l3.623,5.439v83.584v83.574l-3.623,5.439c-1.943,2.979-5.947,6.982-8.926,8.926l-5.439,3.623
		l-81.504,0.254C2592.324-2299.891,2558.818-2300.281,2556.24-2301.053z M2593.359-2341.561c5.049-2.715,7.9-7.5,7.9-13.838
		c0-15.137-15.918-21.738-26.787-10.869c-3.486,3.496-4.268,5.176-4.268,9.961c0.127,6.729,2.07,10.742,7.246,14.102
		C2581.982-2339.227,2588.32-2338.973,2593.359-2341.561z M2694.932-2381.404c6.855-2.07,15.264-10.488,17.344-17.334
		c1.025-3.633,1.543-15.918,1.543-37.92v-32.471h-14.873h-14.883v28.467c0,31.182-0.771,35.068-7.246,37.52
		c-5.176,2.07-14.873,1.426-20.703-1.162l-5.303-2.461l-0.771-12.686c-0.518-7.109-0.908-21.084-0.908-31.172v-18.506h-14.229
		h-14.238v43.35v43.34h14.756h14.873l0.391-4.531l0.391-4.521l5.176,3.486C2667.119-2380.496,2682.9-2377.781,2694.932-2381.404z
		 M2599.971-2425.779v-43.35h-14.883h-14.883v42.432c0,23.428,0.391,42.959,0.908,43.35c0.381,0.518,7.119,0.908,14.873,0.908
		h13.984V-2425.779z"/>
</g>
<g transform="translate(0.000000,256.000000) scale(0.100000,-0.100000)">
	<path fill="#00AFF0" d="M3056.24-2301.053c-6.084-1.816-15.273-11.396-17.08-17.861c-0.908-3.623-1.299-30.537-1.045-85.908
		l0.391-80.605l3.623-5.439c1.943-2.979,5.947-6.982,8.926-8.926l5.439-3.623h83.574h83.584l5.439,3.623
		c2.979,1.943,6.982,5.947,8.926,8.926l3.623,5.439v83.584v83.574l-3.623,5.439c-1.943,2.979-5.947,6.982-8.926,8.926l-5.439,3.623
		l-81.504,0.254C3092.324-2299.891,3058.818-2300.281,3056.24-2301.053z M3093.359-2341.561c5.049-2.715,7.9-7.5,7.9-13.838
		c0-15.137-15.918-21.738-26.787-10.869c-3.486,3.496-4.268,5.176-4.268,9.961c0.127,6.729,2.07,10.742,7.246,14.102
		C3081.982-2339.227,3088.32-2338.973,3093.359-2341.561z M3194.931-2381.404c6.855-2.07,15.264-10.488,17.344-17.334
		c1.025-3.633,1.543-15.918,1.543-37.92v-32.471h-14.873h-14.883v28.467c0,31.182-0.771,35.068-7.246,37.52
		c-5.176,2.07-14.873,1.426-20.703-1.162l-5.303-2.461l-0.771-12.686c-0.518-7.109-0.908-21.084-0.908-31.172v-18.506h-14.229
		h-14.238v43.35v43.34h14.756h14.873l0.391-4.531l0.391-4.521l5.176,3.486C3167.119-2380.496,3182.9-2377.781,3194.931-2381.404z
		 M3099.97-2425.779v-43.35h-14.883h-14.883v42.432c0,23.428,0.391,42.959,0.908,43.35c0.381,0.518,7.119,0.908,14.873,0.908h13.984
		V-2425.779z"/>
</g>
</svg>
